<svg xmlns="http://www.w3.org/2000/svg" xmlns:xlink="http://www.w3.org/1999/xlink" version="1.1" width="92" height="259" style=""><rect id="backgroundrect" width="100%" height="100%" x="0" y="0" fill="none" stroke="none"/><g class="currentLayer" style=""><title>Layer 1</title><g id="svgg" class="selected"><path id="path0" d="M54.37698311901093,0.40922491455078003 C38.48598311901094,7.524224914550782 31.246983119010935,42.25522491455078 38.69398311901094,75.66022491455078 L39.58498311901093,79.66022491455078 L31.837983119010914,87.66022491455078 C4.2899831190109134,116.10522491455077 -4.039016880989067,135.6742249145508 1.7279831190109292,158.41022491455078 C9.284983119010917,188.20722491455078 33.77198311901091,203.9592249145508 62.230983119010915,197.33022491455077 C62.96098311901093,197.16022491455078 66.49198311901094,212.04422491455077 68.47798311901093,223.66022491455078 C71.20798311901092,239.62922491455078 65.54098311901092,250.2752249145508 52.520983119010936,253.6402249145508 C45.488983119010925,255.4572249145508 37.06698311901093,253.4452249145508 35.27798311901091,249.52122491455077 C34.55498311901093,247.9332249145508 34.56698311901093,247.91022491455078 36.15998311901092,247.91022491455078 C48.21598311901093,247.91022491455078 54.11698311901094,233.52822491455078 45.96798311901094,224.0072249145508 C36.92798311901092,213.44522491455078 20.980983119010915,221.69022491455078 21.00998311901091,236.91022491455078 C21.049983119010932,257.1572249145508 50.026983119010936,266.60122491455076 66.19198311901093,251.63422491455077 C74.73598311901094,243.7242249145508 75.64598311901094,235.65322491455078 70.75498311901092,211.16022491455078 C69.10798311901092,202.91022491455078 67.75798311901093,195.90922491455078 67.75498311901092,195.6022249145508 C67.75298311901093,195.29622491455078 69.49898311901092,194.02922491455078 71.63598311901092,192.78822491455077 C90.21798311901094,181.99122491455077 96.55498311901093,160.38522491455078 86.70498311901093,141.41022491455078 C80.93398311901092,130.2932249145508 70.30998311901092,124.05022491455077 57.92298311901092,124.49522491455079 L53.343983119010915,124.66022491455078 L51.018983119010926,112.91022491455078 C49.73998311901093,106.44722491455079 48.59098311901093,100.80422491455079 48.464983119010924,100.36922491455078 C48.33098311901094,99.90522491455079 49.18098311901093,98.56022491455079 50.51798311901092,97.11922491455078 C73.10098311901092,72.78022491455079 78.55998311901092,42.21322491455078 65.64398311901093,12.421224914550784 C61.127983119010935,2.0042249145507824 58.07798311901092,-1.24777508544922 54.37698311901093,0.40922491455078003 M62.80198311901091,23.053224914550782 C72.47998311901094,29.561224914550785 64.36498311901093,55.542224914550786 47.40298311901091,72.35122491455078 C43.51598311901091,76.20322491455079 43.54398311901093,76.22322491455078 42.260983119010916,68.72122491455079 C37.98398311901093,43.70222491455078 50.87898311901091,15.034224914550784 62.80198311901091,23.053224914550782 M46.46698311901093,113.53522491455078 C47.54698311901092,119.10422491455077 48.52798311901091,124.16222491455079 48.64698311901091,124.7762249145508 C48.80898311901092,125.6092249145508 48.55198311901091,126.01122491455078 47.62898311901091,126.36122491455077 C41.595983119010924,128.6552249145508 33.72798311901093,136.7162249145508 30.756983119010926,143.64622491455077 C24.804983119010927,157.5322249145508 30.587983119010914,173.6022249145508 43.982983119010925,180.4012249145508 C49.60298311901093,183.25322491455077 51.59298311901094,180.9952249145508 46.17998311901093,177.91022491455078 C34.833983119010924,171.44322491455077 33.468983119010915,157.6142249145508 43.21598311901093,147.87822491455077 C45.72798311901093,145.36922491455078 51.41698311901092,141.90922491455078 52.02798311901091,142.5202249145508 C52.31898311901094,142.8112249145508 61.74198311901094,190.2922249145508 61.746983119010935,191.4962249145508 C61.766983119010916,195.84822491455077 40.57798311901092,194.6092249145508 30.804983119010927,189.68722491455077 C5.224983119010915,176.8052249145508 3.9739831190109385,146.26522491455077 27.908983119010912,118.98622491455077 C32.42598311901094,113.83922491455078 43.33598311901093,103.41022491455078 44.20398311901093,103.41022491455078 C44.36898311901092,103.41022491455078 45.38698311901092,107.96622491455079 46.46698311901093,113.53522491455078 M64.57298311901093,142.96822491455077 C84.20498311901093,149.0252249145508 87.41998311901094,175.98122491455078 70.03698311901093,188.77822491455078 C66.58098311901094,191.3222249145508 66.73498311901093,191.4472249145508 65.53698311901093,185.16022491455078 C64.65098311901093,180.5082249145508 57.45398311901093,145.02922491455078 56.99198311901094,143.03522491455078 C56.639983119010935,141.5132249145508 59.768983119010926,141.48522491455077 64.57298311901093,142.96822491455077 " stroke="none" fill="#333333" fill-rule="evenodd"/></g></g></svg>