<svg id="svg" version="1.1" width="2000" height="3409" xmlns="http://www.w3.org/2000/svg" xmlns:xlink="http://www.w3.org/1999/xlink" ><g id="svgg"><path id="path0" d="M224.300 45.527 C 211.290 46.921,199.552 57.974,189.494 78.300 C 176.439 104.683,171.814 129.815,174.311 160.800 C 175.511 175.690,177.340 186.724,183.093 213.800 L 185.791 226.500 185.346 226.917 C 185.101 227.146,183.415 228.675,181.600 230.313 C 139.816 268.029,117.589 295.256,104.544 324.700 C 82.484 374.491,89.489 422.915,124.068 459.686 C 153.890 491.397,200.969 506.208,241.119 496.510 L 242.938 496.071 248.179 520.797 C 255.141 553.644,255.118 553.507,255.338 563.000 C 256.003 591.818,244.205 614.981,225.530 621.519 C 206.556 628.161,183.082 625.949,174.434 616.705 C 172.414 614.545,172.233 614.701,176.770 614.695 C 201.869 614.665,218.572 588.852,208.716 565.327 C 197.793 539.255,162.139 536.539,147.163 560.638 C 131.851 585.276,152.492 625.223,185.377 634.595 C 195.706 637.539,209.574 637.589,221.436 634.724 C 258.546 625.764,276.214 590.665,266.799 544.606 C 266.057 540.974,255.670 492.990,255.498 492.400 C 255.435 492.182,256.159 491.745,258.153 490.800 C 304.472 468.839,324.718 397.485,295.097 360.600 C 273.987 334.312,248.303 322.801,220.400 327.123 L 219.700 327.231 213.249 297.412 L 206.799 267.594 209.160 264.747 C 247.622 218.383,266.171 176.581,268.419 131.200 C 270.757 83.998,249.552 42.821,224.300 45.527 M239.300 88.605 C 243.842 89.244,246.506 92.644,248.510 100.360 C 253.686 120.280,247.255 149.017,231.089 178.200 C 225.645 188.028,216.966 197.950,200.705 212.936 L 195.910 217.355 194.555 211.127 C 189.849 189.499,188.911 182.327,188.904 167.900 C 188.897 151.997,190.926 140.791,196.294 127.100 C 204.311 106.648,221.119 90.364,236.100 88.533 C 237.241 88.394,237.906 88.409,239.300 88.605 M202.309 304.410 C 205.236 318.210,207.646 329.709,207.665 329.965 C 207.696 330.372,207.490 330.510,206.000 331.082 C 169.133 345.246,146.872 384.836,157.541 417.266 C 163.624 435.758,180.089 450.368,205.452 459.779 C 208.650 460.965,208.474 460.936,208.752 460.325 C 208.956 459.878,208.829 459.739,206.634 457.988 C 190.112 444.808,185.117 438.302,183.609 428.000 C 179.668 401.070,187.848 381.109,206.640 371.803 C 209.075 370.597,214.054 368.758,215.394 368.569 L 215.889 368.500 227.911 425.200 L 239.934 481.900 239.117 482.156 C 223.627 487.007,203.332 486.717,186.000 481.397 C 137.112 466.390,109.095 407.208,128.816 360.600 C 134.343 347.537,137.108 344.019,168.191 310.503 C 173.191 305.111,178.865 298.990,180.799 296.900 C 184.745 292.637,191.143 285.595,194.575 281.739 C 195.826 280.333,196.881 279.214,196.919 279.252 C 196.957 279.290,199.382 290.611,202.309 304.410 M235.100 367.524 C 258.452 370.451,277.228 386.825,282.085 408.500 C 286.135 426.576,280.021 451.236,268.181 464.578 C 263.943 469.354,252.556 477.836,252.101 476.556 C 252.027 476.348,228.852 369.483,228.456 367.524 L 228.340 366.948 230.520 367.085 C 231.719 367.161,233.780 367.358,235.100 367.524 " stroke="none" fill="#000000" fill-rule="evenodd"></path></g></svg>