<?xml version="1.0" standalone="no"?>
<!DOCTYPE svg PUBLIC "-//W3C//DTD SVG 1.1//EN" "http://www.w3.org/Graphics/SVG/1.1/DTD/svg11.dtd" >
<svg xmlns="http://www.w3.org/2000/svg" xmlns:xlink="http://www.w3.org/1999/xlink" version="1.1">
<metadata>
Created by FontForge 20170910 at Fri May 12 15:03:07 2006
 By Jimmy Wärting
 The digitally encoded machine readable software for producing the
 Typefaces licensed to you is copyrighted (c) 1990, 2001, 2002 Adobe Systems.
 All Rights Reserved. This software is the property of Adobe Systems
 Incorporated and its licensors, and may not be reproduced, used, 
 displayed, modified, disclosed or transferred without the express 
 written approval of Adobe.
 
 The digitally encoded machine readable outline data for producing the Typefaces 
 provided as part of your laser printer is copyrighted (c) 1981, 2001, 2002 Heidelberger Druckmaschinen AG. 
 All rights reserved. This data is the property of Heidelberger Druckmaschinen AG, 
 and may not be reproduced, used, displayed, modified, disclosed or transferred 
 without the express written approval of Heidelberger Druckmaschinen AG. 
</metadata>
<defs>
<font id="NeuzeitSLTStd-Book" horiz-adv-x="556" >
  <font-face 
    font-family="Neuzeit S LT Std"
    font-weight="400"
    font-stretch="normal"
    units-per-em="1000"
    panose-1="0 0 5 0 0 0 0 0 0 0"
    ascent="752"
    descent="-248"
    x-height="500"
    cap-height="752"
    bbox="-181 -224 1000 978"
    underline-thickness="50"
    underline-position="-100"
    stemh="64"
    stemv="78"
    unicode-range="U+0020-FB02"
  />
<missing-glyph horiz-adv-x="500" 
d="M0 0v700h500v-700h-500zM250 395l170 255h-340zM280 350l170 -255v510zM80 50h340l-170 255zM50 605v-510l170 255z" />
    <glyph glyph-name="fi" unicode="fi" 
d="M124 0v436h-93v64h93v143c0 80 59 109 120 109c22 0 44 0 59 -3v-76c-13 3 -30 3 -47 3c-40 0 -54 -20 -54 -50v-126h101v-64h-101v-436h-78zM406 0v500h78v-500h-78zM445 634c-33 0 -59 26 -59 59s26 59 59 59s59 -26 59 -59s-26 -59 -59 -59z" />
    <glyph glyph-name="fl" unicode="fl" 
d="M124 0v436h-93v64h93v143c0 80 59 109 120 109c22 0 44 0 59 -3v-76c-13 3 -30 3 -47 3c-40 0 -54 -20 -54 -50v-126h101v-64h-101v-436h-78zM406 0v752h78v-752h-78z" />
    <glyph glyph-name=".notdef" horiz-adv-x="500" 
d="M0 0v700h500v-700h-500zM250 395l170 255h-340zM280 350l170 -255v510zM80 50h340l-170 255zM50 605v-510l170 255z" />
    <glyph glyph-name="space" unicode=" " horiz-adv-x="278" 
 />
    <glyph glyph-name="exclam" unicode="!" horiz-adv-x="334" 
d="M128 171v581h78v-581h-78zM111 44c0 31 25 56 56 56s56 -25 56 -56s-25 -56 -56 -56s-56 25 -56 56z" />
    <glyph glyph-name="quotedbl" unicode="&#x22;" horiz-adv-x="333" 
d="M219 500v252h78v-252h-78zM36 500v252h78v-252h-78z" />
    <glyph glyph-name="numbersign" unicode="#" 
d="M331 287l23 166h-129l-23 -166h129zM291 0l32 229h-129l-32 -229h-64l32 229h-108v58h116l23 166h-108v58h116l32 229h64l-32 -229h129l32 229h64l-32 -229h108v-58h-116l-23 -166h108v-58h-116l-32 -229h-64z" />
    <glyph glyph-name="dollar" unicode="$" 
d="M304 330v-272c83 7 128 55 128 137c0 76 -49 116 -128 135zM252 58v286c-78 22 -198 57 -198 202c0 103 69 196 198 206v75h52v-75c81 -4 190 -46 201 -208h-84c-2 37 -9 124 -117 138v-264c134 -34 212 -90 212 -207c0 -113 -66 -207 -212 -223v-116h-52v116
c-145 8 -204 101 -212 218h84c4 -65 34 -136 128 -148zM252 433v249c-69 -4 -114 -60 -114 -125c0 -82 58 -106 114 -124z" />
    <glyph glyph-name="percent" unicode="%" horiz-adv-x="1000" 
d="M358 567c0 71 -23 127 -83 127s-83 -56 -83 -127s23 -127 83 -127s83 56 83 127zM114 567c0 129 86 185 161 185c76 0 161 -56 161 -185s-85 -185 -161 -185c-75 0 -161 56 -161 185zM808 173c0 71 -23 127 -83 127s-83 -56 -83 -127s23 -127 83 -127s83 56 83 127z
M564 173c0 129 86 185 161 185c76 0 161 -56 161 -185s-85 -185 -161 -185c-75 0 -161 56 -161 185zM237 -34l463 808h63l-463 -808h-63z" />
    <glyph glyph-name="ampersand" unicode="&#x26;" horiz-adv-x="722" 
d="M568 0l-57 81c-38 -45 -109 -95 -210 -95c-133 0 -216 90 -216 211c0 148 128 200 181 228c-38 55 -69 101 -69 162s44 143 153 143c99 0 147 -65 147 -139c0 -67 -27 -110 -81 -151l-46 -35l145 -202c20 38 36 89 41 127h78c-9 -56 -35 -136 -72 -184l105 -146h-99z
M471 131l-168 238c-84 -45 -134 -92 -134 -171c0 -66 45 -142 142 -142c71 0 126 33 160 75zM275 581c0 -40 24 -73 58 -120c49 32 86 71 86 123c0 50 -28 82 -70 82c-38 0 -74 -24 -74 -85z" />
    <glyph glyph-name="quoteright" unicode="&#x2019;" horiz-adv-x="278" 
d="M56 524l86 242l80 -37l-115 -229z" />
    <glyph glyph-name="parenleft" unicode="(" horiz-adv-x="334" 
d="M322 -148l-60 -51c-66 77 -192 237 -192 494s126 417 192 494l60 -51c-69 -74 -174 -230 -174 -443s105 -369 174 -443z" />
    <glyph glyph-name="parenright" unicode=")" horiz-adv-x="334" 
d="M72 -199l-60 51c69 74 174 230 174 443s-105 369 -174 443l60 51c66 -77 192 -237 192 -494s-126 -417 -192 -494z" />
    <glyph glyph-name="asterisk" unicode="*" 
d="M240 558l-142 47l16 50l138 -50v147h52v-147l136 50l18 -50l-142 -47l92 -119l-44 -32l-86 123l-86 -123l-44 32z" />
    <glyph glyph-name="plus" unicode="+" horiz-adv-x="600" 
d="M271 0v224h-224v58h224v224h58v-224h224v-58h-224v-224h-58z" />
    <glyph glyph-name="comma" unicode="," horiz-adv-x="278" 
d="M14 -140l99 258l79 -38l-126 -242z" />
    <glyph glyph-name="hyphen" unicode="-" horiz-adv-x="334" 
d="M44 224v76h246v-76h-246z" />
    <glyph glyph-name="period" unicode="." horiz-adv-x="278" 
d="M83 44c0 31 25 56 56 56s56 -25 56 -56s-25 -56 -56 -56s-56 25 -56 56z" />
    <glyph glyph-name="slash" unicode="/" horiz-adv-x="389" 
d="M16 -14l293 780h64l-293 -780h-64z" />
    <glyph glyph-name="zero" unicode="0" 
d="M278 -12c-196 0 -241 198 -241 382s45 382 241 382s241 -198 241 -382s-45 -382 -241 -382zM278 682c-92 0 -157 -88 -157 -312s65 -312 157 -312s157 88 157 312s-65 312 -157 312z" />
    <glyph glyph-name="one" unicode="1" 
d="M277 0v624c-40 -31 -96 -62 -147 -83v77c68 26 159 98 191 134h40v-752h-84z" />
    <glyph glyph-name="two" unicode="2" 
d="M48 0v71l242 267c63 69 124 143 124 210c0 72 -50 128 -138 128c-97 0 -137 -71 -142 -161h-78c3 177 114 237 221 237c144 0 221 -89 221 -201c0 -82 -40 -148 -123 -238l-220 -237h344v-76h-451z" />
    <glyph glyph-name="three" unicode="3" 
d="M155 357v71l228 236h-312v76h406v-76l-210 -215l2 -2c11 2 24 3 34 3c103 0 201 -71 201 -215c0 -129 -82 -247 -241 -247c-197 0 -216 139 -224 197l78 6c10 -82 43 -133 145 -133c98 0 158 72 158 166c0 101 -70 162 -160 162c-47 0 -77 -16 -99 -33z" />
    <glyph glyph-name="four" unicode="4" 
d="M357 0v203h-322v67l325 482h75v-479h86v-70h-86v-203h-78zM357 273v361h-2l-237 -361h239z" />
    <glyph glyph-name="five" unicode="5" 
d="M59 332l18 408h397v-76h-328l-12 -244h2c27 38 74 64 150 64c102 0 222 -62 222 -245c0 -108 -68 -251 -233 -251c-124 0 -216 54 -227 198l84 7c4 -78 55 -135 137 -135s155 57 155 180c0 101 -63 170 -152 170c-74 0 -114 -36 -134 -76h-79z" />
    <glyph glyph-name="six" unicode="6" 
d="M433 227c0 98 -53 163 -154 163c-81 0 -146 -65 -146 -162c0 -99 53 -170 147 -170c103 0 153 80 153 169zM500 570l-82 -6c-15 69 -48 118 -122 118c-135 0 -167 -157 -173 -317l2 -2c23 47 75 103 169 103c140 0 223 -98 223 -236c0 -126 -88 -242 -235 -242
c-196 0 -243 165 -243 366c0 257 95 398 254 398c182 0 204 -151 207 -182z" />
    <glyph glyph-name="seven" unicode="7" 
d="M50 664v76h450v-83c-129 -198 -239 -447 -268 -657h-92c15 136 142 474 282 664h-372z" />
    <glyph glyph-name="eight" unicode="8" 
d="M396 559c0 72 -48 123 -118 123c-69 0 -118 -51 -118 -123c0 -70 44 -124 118 -124s118 54 118 124zM278 -12c-148 0 -235 99 -235 216c0 109 53 175 144 201v2c-74 21 -111 80 -111 153c0 106 83 192 202 192s202 -86 202 -192c0 -73 -37 -132 -111 -153v-2
c91 -26 144 -92 144 -201c0 -117 -87 -216 -235 -216zM429 214c0 84 -57 151 -151 151s-151 -67 -151 -151c0 -98 59 -156 151 -156c93 0 151 58 151 156z" />
    <glyph glyph-name="nine" unicode="9" 
d="M423 512c0 99 -53 170 -147 170c-103 0 -153 -80 -153 -169c0 -98 53 -163 154 -163c81 0 146 65 146 162zM56 170l82 6c15 -69 48 -118 122 -118c135 0 167 157 173 317l-2 2c-23 -47 -75 -103 -169 -103c-140 0 -223 98 -223 236c0 126 88 242 235 242
c196 0 243 -165 243 -366c0 -257 -95 -398 -254 -398c-182 0 -204 151 -207 182z" />
    <glyph glyph-name="colon" unicode=":" horiz-adv-x="278" 
d="M83 428c0 31 25 56 56 56s56 -25 56 -56s-25 -56 -56 -56s-56 25 -56 56zM83 44c0 31 25 56 56 56s56 -25 56 -56s-25 -56 -56 -56s-56 25 -56 56z" />
    <glyph glyph-name="semicolon" unicode=";" horiz-adv-x="278" 
d="M14 -140l99 258l79 -38l-126 -242zM83 428c0 31 25 56 56 56s56 -25 56 -56s-25 -56 -56 -56s-56 25 -56 56z" />
    <glyph glyph-name="less" unicode="&#x3c;" horiz-adv-x="600" 
d="M47 224v58l506 232v-62l-435 -199l435 -199v-62z" />
    <glyph glyph-name="equal" unicode="=" horiz-adv-x="600" 
d="M47 323v58h506v-58h-506zM47 125v58h506v-58h-506z" />
    <glyph glyph-name="greater" unicode="&#x3e;" horiz-adv-x="600" 
d="M47 54l435 199l-435 199v62l506 -232v-58l-506 -232v62z" />
    <glyph glyph-name="question" unicode="?" 
d="M203 171v51c0 81 13 141 91 201c68 52 98 87 98 159c0 64 -41 114 -114 114c-83 0 -120 -57 -120 -140h-78c0 83 33 210 200 210c107 0 196 -60 196 -188c0 -95 -47 -138 -123 -198c-64 -51 -72 -105 -72 -144v-65h-78zM186 44c0 31 25 56 56 56s56 -25 56 -56
s-25 -56 -56 -56s-56 25 -56 56z" />
    <glyph glyph-name="at" unicode="@" horiz-adv-x="800" 
d="M500 442c0 75 -42 104 -86 104c-114 0 -184 -142 -184 -237c0 -72 39 -109 98 -109c97 0 172 135 172 242zM534 517l20 68h65l-97 -301c-9 -27 -17 -50 -17 -66s21 -18 48 -18c78 0 179 72 179 229c0 181 -141 285 -332 285c-195 0 -332 -155 -332 -343
c0 -192 143 -333 335 -333c120 0 225 52 286 137h64c-64 -118 -200 -189 -357 -189c-200 0 -386 138 -386 390c0 217 177 390 388 390c232 0 392 -150 392 -340c0 -162 -133 -284 -257 -284c-48 0 -82 23 -86 71h-2c-32 -36 -80 -71 -133 -71c-95 0 -146 73 -146 160
c0 145 101 302 251 302c48 0 91 -25 115 -87h2z" />
    <glyph glyph-name="A" unicode="A" horiz-adv-x="668" 
d="M462 288l-127 358h-2l-127 -358h256zM8 0l283 752h86l283 -752h-95l-75 212h-312l-75 -212h-95z" />
    <glyph glyph-name="B" unicode="B" horiz-adv-x="611" 
d="M85 0v752h242c131 0 204 -83 204 -176c0 -83 -22 -164 -122 -184v-2c81 -6 150 -62 150 -183c0 -113 -91 -207 -225 -207h-249zM169 76h157c97 0 149 63 149 137c0 59 -43 135 -168 135h-138v-272zM169 418h125c92 0 147 49 147 137c0 99 -58 127 -144 127h-128v-264z
" />
    <glyph glyph-name="C" unicode="C" horiz-adv-x="833" 
d="M779 514l-85 -6c-38 134 -135 182 -249 182c-209 0 -292 -162 -292 -314c0 -150 73 -314 292 -314c142 0 222 82 254 208l85 -10c-32 -129 -119 -274 -348 -274c-218 0 -373 149 -373 390c0 227 165 390 382 390c240 0 313 -148 334 -252z" />
    <glyph glyph-name="D" unicode="D" horiz-adv-x="778" 
d="M93 752h233c299 0 389 -196 389 -372c0 -188 -117 -380 -357 -380h-265v752zM177 676v-600h165c192 0 283 151 283 305c0 151 -80 295 -304 295h-144z" />
    <glyph glyph-name="E" unicode="E" 
d="M85 0v752h424v-76h-340v-252h330v-76h-330v-272h340v-76h-424z" />
    <glyph glyph-name="F" unicode="F" 
d="M85 0v752h424v-76h-340v-252h330v-76h-330v-348h-84z" />
    <glyph glyph-name="G" unicode="G" horiz-adv-x="833" 
d="M426 328v76h344c-3 -214 -96 -418 -351 -418c-227 0 -356 159 -356 390c0 199 125 390 374 390c176 0 295 -112 313 -231l-83 -8c-23 75 -85 163 -244 163c-177 0 -270 -139 -270 -318c0 -189 111 -310 267 -310c192 0 250 153 260 266h-254z" />
    <glyph glyph-name="H" unicode="H" horiz-adv-x="722" 
d="M85 0v752h84v-328h384v328h84v-752h-84v348h-384v-348h-84z" />
    <glyph glyph-name="I" unicode="I" horiz-adv-x="278" 
d="M97 0v752h84v-752h-84z" />
    <glyph glyph-name="J" unicode="J" horiz-adv-x="444" 
d="M16 -5v75c23 -6 42 -8 92 -8c122 0 167 66 167 182v432h-254v76h338v-526c0 -136 -65 -240 -249 -240c-35 0 -67 2 -94 9z" />
    <glyph glyph-name="K" unicode="K" horiz-adv-x="611" 
d="M85 0v752h84v-355h2l314 355h113l-334 -360l339 -392h-116l-316 381h-2v-381h-84z" />
    <glyph glyph-name="L" unicode="L" 
d="M85 0v752h84v-676h352v-76h-436z" />
    <glyph glyph-name="M" unicode="M" horiz-adv-x="944" 
d="M89 0v752h99l284 -634l284 634h99v-752h-84v600h-2l-270 -600h-54l-270 595h-2v-595h-84z" />
    <glyph glyph-name="N" unicode="N" horiz-adv-x="778" 
d="M89 0v752h91l423 -620h2v620h84v-752h-91l-423 620h-2v-620h-84z" />
    <glyph glyph-name="O" unicode="O" horiz-adv-x="890" 
d="M737 376c0 152 -83 314 -292 314s-292 -162 -292 -314c0 -124 81 -314 292 -314s292 190 292 314zM63 376c0 227 165 390 382 390c221 0 382 -149 382 -390c0 -227 -165 -390 -382 -390c-221 0 -382 149 -382 390z" />
    <glyph glyph-name="P" unicode="P" horiz-adv-x="611" 
d="M169 366h130c96 0 181 41 181 155c0 109 -72 155 -174 155h-137v-310zM85 0v752h239c154 0 246 -87 246 -232c0 -149 -108 -230 -258 -230h-143v-290h-84z" />
    <glyph glyph-name="Q" unicode="Q" horiz-adv-x="890" 
d="M782 -34l-100 100c-65 -51 -146 -80 -237 -80c-221 0 -382 149 -382 390c0 227 165 390 382 390c221 0 382 -149 382 -390c0 -104 -35 -195 -93 -262l98 -98zM624 124l-81 81l50 50l79 -79c46 63 65 139 65 200c0 152 -83 314 -292 314s-292 -162 -292 -314
c0 -124 81 -314 292 -314c77 0 136 25 179 62z" />
    <glyph glyph-name="R" unicode="R" horiz-adv-x="611" 
d="M169 398h150c99 0 166 47 166 137c0 111 -84 141 -171 141h-145v-278zM501 0l-185 322h-147v-322h-84v752h233c201 0 257 -107 257 -205c0 -135 -88 -197 -171 -217l200 -330h-103z" />
    <glyph glyph-name="S" unicode="S" horiz-adv-x="667" 
d="M591 556h-86c-4 61 -50 134 -170 134c-119 0 -170 -68 -170 -140c0 -50 30 -97 168 -124c189 -37 274 -83 274 -214c0 -113 -80 -226 -275 -226c-170 0 -264 84 -272 222h85c15 -99 82 -146 191 -146c129 0 181 75 181 142c0 82 -46 108 -179 136
c-173 36 -257 84 -257 210c0 123 101 216 253 216c185 0 242 -101 257 -210z" />
    <glyph glyph-name="T" unicode="T" 
d="M236 0v676h-228v76h540v-76h-228v-676h-84z" />
    <glyph glyph-name="U" unicode="U" horiz-adv-x="722" 
d="M85 249v503h84v-490c0 -137 77 -200 192 -200c105 0 192 64 192 217v473h84v-474c0 -197 -123 -292 -276 -292c-183 0 -276 107 -276 263z" />
    <glyph glyph-name="V" unicode="V" horiz-adv-x="612" 
d="M269 0l-259 752h95l202 -635h2l202 635h91l-255 -752h-78z" />
    <glyph glyph-name="W" unicode="W" horiz-adv-x="944" 
d="M654 0l-181 628h-2l-181 -628h-76l-199 752h89l148 -622h2l179 622h78l179 -627h2l148 627h89l-199 -752h-76z" />
    <glyph glyph-name="X" unicode="X" horiz-adv-x="612" 
d="M493 0l-189 318l-191 -318h-103l246 382l-237 370h107l184 -309l184 309h103l-238 -370l243 -382h-109z" />
    <glyph glyph-name="Y" unicode="Y" horiz-adv-x="612" 
d="M266 0v307l-259 445h103l198 -370l194 370h103l-255 -445v-307h-84z" />
    <glyph glyph-name="Z" unicode="Z" horiz-adv-x="611" 
d="M21 0v70l462 606h-426v76h533v-70l-462 -606h451v-76h-558z" />
    <glyph glyph-name="bracketleft" unicode="[" horiz-adv-x="334" 
d="M104 -192v974h190v-64h-112v-846h112v-64h-190z" />
    <glyph glyph-name="backslash" unicode="\" horiz-adv-x="389" 
d="M309 -14l-293 780h64l293 -780h-64z" />
    <glyph glyph-name="bracketright" unicode="]" horiz-adv-x="334" 
d="M40 -192v64h112v846h-112v64h190v-974h-190z" />
    <glyph glyph-name="asciicircum" unicode="^" horiz-adv-x="600" 
d="M111 297h-64l224 443h58l224 -443h-64l-189 376z" />
    <glyph glyph-name="underscore" unicode="_" horiz-adv-x="500" 
d="M500 -125h-500v50h500v-50z" />
    <glyph glyph-name="quoteleft" unicode="&#x2018;" horiz-adv-x="278" 
d="M56 537l115 229l51 -24l-86 -242z" />
    <glyph glyph-name="a" unicode="a" 
d="M399 0v66h-2c-35 -62 -110 -80 -168 -80c-119 0 -181 70 -181 149c0 92 50 146 187 153c55 3 109 6 164 8v38c0 64 -27 116 -127 116c-92 0 -122 -39 -132 -95h-77c16 112 92 159 210 159c134 0 204 -61 204 -168v-248c0 -31 4 -70 7 -98h-85zM399 175v62l-132 -6
c-85 -4 -135 -27 -135 -92c0 -50 43 -89 114 -89c68 0 153 38 153 125z" />
    <glyph glyph-name="b" unicode="b" horiz-adv-x="611" 
d="M479 248c0 132 -76 190 -162 190c-83 0 -164 -61 -164 -192c0 -105 62 -190 167 -190s159 88 159 192zM75 0v752h78v-339h2c21 32 66 95 177 95c104 0 231 -74 231 -258c0 -156 -103 -264 -241 -264c-103 0 -144 62 -167 101h-2v-87h-78z" />
    <glyph glyph-name="c" unicode="c" 
d="M523 341l-80 -8c-13 38 -41 111 -136 111c-99 0 -175 -76 -175 -197c0 -99 51 -191 171 -191c86 0 123 59 140 116l83 -10c-26 -86 -88 -176 -224 -176c-166 0 -254 124 -254 262c0 167 121 266 255 266c109 0 200 -54 220 -173z" />
    <glyph glyph-name="d" unicode="d" horiz-adv-x="611" 
d="M458 246c0 131 -81 192 -164 192c-86 0 -162 -58 -162 -190c0 -104 54 -192 159 -192s167 85 167 190zM458 0v87h-2c-23 -39 -64 -101 -167 -101c-138 0 -241 108 -241 264c0 184 127 258 231 258c111 0 156 -63 177 -95h2v339h78v-752h-78z" />
    <glyph glyph-name="e" unicode="e" 
d="M433 153l80 -12c-43 -95 -115 -155 -230 -155c-140 0 -235 106 -235 245c0 168 92 283 239 283c142 0 239 -90 239 -260v-22h-394c0 -116 71 -176 155 -176c90 0 129 56 146 97zM134 296h308c-11 91 -63 148 -153 148c-102 0 -149 -80 -155 -148z" />
    <glyph glyph-name="f" unicode="f" horiz-adv-x="334" 
d="M124 0v436h-93v64h93v143c0 80 59 109 120 109c22 0 44 0 59 -3v-76c-13 3 -30 3 -47 3c-40 0 -54 -20 -54 -50v-126h101v-64h-101v-436h-78z" />
    <glyph glyph-name="g" unicode="g" horiz-adv-x="611" 
d="M458 415v85h78v-452c0 -156 -72 -258 -259 -258c-122 0 -204 60 -212 164l84 4c7 -40 29 -98 130 -98c144 0 179 94 179 209v41h-2c-37 -82 -111 -110 -178 -110c-147 0 -230 112 -230 256c0 155 108 258 239 258c67 0 130 -36 169 -99h2zM458 264c0 91 -53 180 -164 180
c-91 0 -162 -60 -162 -181c0 -113 47 -193 159 -193c79 0 167 60 167 194z" />
    <glyph glyph-name="h" unicode="h" 
d="M403 0v302c0 104 -54 136 -110 136c-73 0 -140 -56 -140 -160v-278h-78v752h78v-337h2c34 64 88 93 159 93c60 0 167 -31 167 -172v-336h-78z" />
    <glyph glyph-name="i" unicode="i" horiz-adv-x="222" 
d="M72 0v500h78v-500h-78zM52 693c0 33 26 59 59 59s59 -26 59 -59s-26 -59 -59 -59s-59 26 -59 59z" />
    <glyph glyph-name="j" unicode="j" horiz-adv-x="222" 
d="M-25 -210v70h25c50 0 72 16 72 80v560h78v-565c0 -97 -35 -145 -150 -145h-25zM52 693c0 33 26 59 59 59s59 -26 59 -59s-26 -59 -59 -59s-59 26 -59 59z" />
    <glyph glyph-name="k" unicode="k" horiz-adv-x="500" 
d="M379 0l-226 263v-263h-78v752h78v-473l224 221h107l-242 -228l246 -272h-109z" />
    <glyph glyph-name="l" unicode="l" horiz-adv-x="222" 
d="M72 0v752h78v-752h-78z" />
    <glyph glyph-name="m" unicode="m" horiz-adv-x="834" 
d="M681 0v321c0 83 -30 117 -108 117c-61 0 -117 -54 -117 -136v-302h-78v321c0 83 -30 117 -105 117c-64 0 -120 -54 -120 -136v-302h-78v500h77v-80h2c26 42 63 88 150 88c91 0 125 -61 138 -98c29 57 67 98 153 98c108 0 164 -59 164 -166v-342h-78z" />
    <glyph glyph-name="n" unicode="n" 
d="M403 0v302c0 104 -54 136 -110 136c-73 0 -140 -56 -140 -160v-278h-78v500h78v-85h2c34 64 88 93 159 93c60 0 167 -31 167 -172v-336h-78z" />
    <glyph glyph-name="o" unicode="o" horiz-adv-x="612" 
d="M564 250c0 -133 -90 -264 -258 -264c-181 0 -258 131 -258 264s90 264 258 264c181 0 258 -131 258 -264zM132 250c0 -113 66 -194 174 -194s174 81 174 194s-66 194 -174 194s-174 -81 -174 -194z" />
    <glyph glyph-name="p" unicode="p" horiz-adv-x="611" 
d="M479 248c0 132 -76 190 -162 190c-83 0 -164 -61 -164 -192c0 -105 62 -190 167 -190s159 88 159 192zM75 -210v710h78v-87h2c21 32 66 95 177 95c104 0 231 -74 231 -258c0 -156 -103 -264 -241 -264c-88 0 -142 49 -167 95h-2v-291h-78z" />
    <glyph glyph-name="q" unicode="q" horiz-adv-x="611" 
d="M132 248c0 -104 54 -192 159 -192s167 85 167 190c0 131 -81 192 -164 192c-86 0 -162 -58 -162 -190zM458 -210v291h-2c-25 -46 -79 -95 -167 -95c-138 0 -241 108 -241 264c0 184 127 258 231 258c111 0 156 -63 177 -95h2v87h78v-710h-78z" />
    <glyph glyph-name="r" unicode="r" horiz-adv-x="334" 
d="M75 0v500h76v-110h2c20 53 60 118 144 118h28v-82h-25c-102 0 -147 -70 -147 -188v-238h-78z" />
    <glyph glyph-name="s" unicode="s" horiz-adv-x="500" 
d="M451 351h-78c-4 46 -35 93 -123 93c-71 0 -120 -30 -120 -78s38 -70 131 -85c128 -21 201 -52 201 -143c0 -73 -56 -152 -212 -152c-159 0 -203 79 -212 161h78c3 -42 33 -91 132 -91c78 0 137 27 136 78c-1 40 -26 57 -151 78c-101 17 -181 50 -181 146
c0 97 84 156 205 156c112 0 194 -65 194 -163z" />
    <glyph glyph-name="t" unicode="t" horiz-adv-x="334" 
d="M31 436v64h93v146h78v-146h101v-64h-101v-307c0 -45 13 -65 48 -65c18 0 37 1 52 3v-70c-28 -2 -55 -3 -79 -3c-67 0 -99 26 -99 126v316h-93z" />
    <glyph glyph-name="u" unicode="u" 
d="M403 0v79h-2c-34 -64 -88 -93 -159 -93c-73 0 -167 37 -167 185v329h78v-308c0 -104 54 -136 110 -136c73 0 140 56 140 160v284h78v-500h-78z" />
    <glyph glyph-name="v" unicode="v" horiz-adv-x="500" 
d="M213 0l-205 500h88l153 -388h2l157 388h84l-208 -500h-71z" />
    <glyph glyph-name="w" unicode="w" horiz-adv-x="778" 
d="M190 0l-174 500h86l124 -382h2l124 382h74l127 -382h2l124 382h83l-172 -500h-77l-123 382h-2l-122 -382h-76z" />
    <glyph glyph-name="x" unicode="x" horiz-adv-x="500" 
d="M8 0l192 258l-180 242h104l132 -200l132 200h98l-184 -242l190 -258h-102l-138 206l-147 -206h-97z" />
    <glyph glyph-name="y" unicode="y" horiz-adv-x="500" 
d="M115 -210l96 220l-203 490h89l153 -414h2l154 414h86l-292 -710h-85z" />
    <glyph glyph-name="z" unicode="z" horiz-adv-x="444" 
d="M28 0v68l291 362h-281v70h378v-68l-291 -362h291v-70h-388z" />
    <glyph glyph-name="braceleft" unicode="{" horiz-adv-x="334" 
d="M70 266v58c45 0 70 34 70 132v222c0 62 34 104 113 104h41v-58h-21c-41 0 -55 -21 -55 -58v-216c0 -90 -30 -134 -76 -154v-2c46 -20 76 -64 76 -154v-216c0 -37 14 -58 55 -58h21v-58h-41c-79 0 -113 42 -113 104v222c0 98 -25 132 -70 132z" />
    <glyph glyph-name="bar" unicode="|" horiz-adv-x="222" 
d="M82 -14v780h58v-780h-58z" />
    <glyph glyph-name="braceright" unicode="}" horiz-adv-x="334" 
d="M40 -192v58h21c41 0 55 21 55 58v216c0 90 30 134 76 154v2c-46 20 -76 64 -76 154v216c0 37 -14 58 -55 58h-21v58h41c79 0 113 -42 113 -104v-222c0 -98 25 -132 70 -132v-58c-45 0 -70 -34 -70 -132v-222c0 -62 -34 -104 -113 -104h-41z" />
    <glyph glyph-name="asciitilde" unicode="~" horiz-adv-x="600" 
d="M105 187l-36 42c22 42 58 86 125 86c40 0 73 -15 115 -33c38 -16 73 -33 98 -33c40 0 65 35 88 70l36 -42c-22 -42 -58 -86 -125 -86c-40 0 -73 15 -115 33c-38 16 -73 33 -98 33c-40 0 -65 -35 -88 -70z" />
    <glyph glyph-name="exclamdown" unicode="&#xa1;" horiz-adv-x="334" 
d="M128 -210v581h78v-581h-78zM111 498c0 31 25 56 56 56s56 -25 56 -56s-25 -56 -56 -56s-56 25 -56 56z" />
    <glyph glyph-name="cent" unicode="&#xa2;" 
d="M261 59v381c-80 -16 -138 -87 -138 -193c0 -90 42 -173 138 -188zM261 -123v111c-146 15 -222 132 -222 260c0 154 102 250 222 263v69h46v-66c104 -5 188 -59 207 -173l-80 -8c-12 37 -39 105 -127 111v-386c77 5 111 60 127 114l83 -10c-25 -83 -84 -169 -210 -174
v-111h-46z" />
    <glyph glyph-name="sterling" unicode="&#xa3;" 
d="M38 350v52h84c-38 56 -47 110 -47 149c0 113 93 201 214 201c169 0 213 -105 217 -193l-84 -6c-5 85 -54 129 -128 129c-79 0 -129 -51 -129 -132c0 -37 11 -74 48 -148h211v-52h-191c7 -25 12 -51 12 -79c0 -85 -50 -142 -101 -189l2 -2c18 7 36 15 85 15
c30 0 57 -7 91 -16c26 -7 52 -15 81 -15c33 0 72 14 93 32l25 -75c-19 -12 -58 -33 -124 -33c-36 0 -73 10 -97 17c-33 10 -88 20 -115 20c-53 0 -98 -20 -118 -39l-32 69c86 38 132 128 132 195c0 43 -8 74 -19 100h-110z" />
    <glyph glyph-name="fraction" unicode="&#x2044;" horiz-adv-x="167" 
d="M-181 -12l462 764h67l-462 -764h-67z" />
    <glyph glyph-name="yen" unicode="&#xa5;" 
d="M239 0v165h-147v58h147v76l-3 5h-144v58h114l-199 378h100l171 -364l171 364h100l-199 -378h114v-58h-144l-3 -5v-76h147v-58h-147v-165h-78z" />
    <glyph glyph-name="florin" unicode="&#x192;" 
d="M62 -210l9 76h26c52 0 73 23 82 97l48 387h-96l6 52h96l31 231c10 74 61 119 149 119h41l-9 -76h-24c-49 0 -67 -12 -78 -90l-25 -184h107l-6 -52h-107l-51 -398c-17 -133 -69 -162 -157 -162h-42z" />
    <glyph glyph-name="section" unicode="&#xa7;" 
d="M475 593h-84c-7 76 -46 103 -111 103c-85 0 -113 -63 -113 -105c0 -187 328 -64 328 -309c0 -85 -63 -156 -126 -165v-2c77 -21 111 -82 111 -147c0 -115 -82 -192 -203 -192c-146 0 -194 78 -201 175h84c1 -72 56 -105 110 -105c84 0 126 47 126 109
c0 191 -335 51 -335 316c0 81 48 143 125 163v2c-69 20 -103 77 -103 155c0 93 74 175 199 175c115 0 189 -66 193 -173zM411 278c0 64 -49 114 -137 114c-86 0 -129 -55 -129 -117c0 -58 39 -118 133 -118c81 0 133 50 133 121z" />
    <glyph glyph-name="currency" unicode="&#xa4;" 
d="M28 161l56 56c-34 41 -54 95 -54 153s20 112 54 153l-56 56l41 41l56 -56c42 34 95 54 153 54s112 -20 153 -54l56 56l41 -41l-56 -56c34 -42 54 -95 54 -153c0 -57 -20 -111 -54 -153l56 -56l-41 -41l-56 56c-42 -34 -95 -54 -153 -54s-111 20 -153 54l-56 -56zM462 370
c0 105 -85 190 -184 190s-184 -85 -184 -190s85 -190 184 -190s184 85 184 190z" />
    <glyph glyph-name="quotesingle" unicode="'" horiz-adv-x="278" 
d="M100 500v252h78v-252h-78z" />
    <glyph glyph-name="quotedblleft" unicode="&#x201c;" 
d="M294 537l115 229l51 -24l-86 -242zM96 537l115 229l51 -24l-86 -242z" />
    <glyph glyph-name="guillemotleft" unicode="&#xab;" 
d="M382 80l-107 184l110 180h70l-112 -180l109 -184h-70zM208 80l-107 184l110 180h70l-112 -180l109 -184h-70z" />
    <glyph glyph-name="guilsinglleft" unicode="&#x2039;" horiz-adv-x="278" 
d="M156 80l-107 184l110 180h70l-112 -180l109 -184h-70z" />
    <glyph glyph-name="guilsinglright" unicode="&#x203a;" horiz-adv-x="278" 
d="M49 80l112 180l-109 184h70l107 -184l-110 -180h-70z" />
    <glyph glyph-name="endash" unicode="&#x2013;" horiz-adv-x="500" 
d="M0 227v70h500v-70h-500z" />
    <glyph glyph-name="dagger" unicode="&#x2020;" 
d="M239 -121v577h-171v76h171v220h78v-220h171v-76h-171v-577h-78z" />
    <glyph glyph-name="daggerdbl" unicode="&#x2021;" 
d="M239 148v335h-171v76h171v193h78v-193h171v-76h-171v-335h171v-76h-171v-193h-78v193h-171v76h171z" />
    <glyph glyph-name="periodcentered" unicode="&#xb7;" horiz-adv-x="278" 
d="M80 327c0 33 26 59 59 59s59 -26 59 -59s-26 -59 -59 -59s-59 26 -59 59z" />
    <glyph glyph-name="paragraph" unicode="&#xb6;" horiz-adv-x="600" 
d="M438 -210v910h-100v-910h-72v580c-121 0 -209 75 -209 188c0 128 88 194 219 194h234v-962h-72z" />
    <glyph glyph-name="bullet" unicode="&#x2022;" horiz-adv-x="500" 
d="M62 376c0 104 84 188 188 188s188 -84 188 -188s-84 -188 -188 -188s-188 84 -188 188z" />
    <glyph glyph-name="quotesinglbase" unicode="&#x201a;" horiz-adv-x="278" 
d="M56 -138l86 242l80 -37l-115 -229z" />
    <glyph glyph-name="quotedblbase" unicode="&#x201e;" 
d="M96 -138l86 242l80 -37l-115 -229zM294 -138l86 242l80 -37l-115 -229z" />
    <glyph glyph-name="quotedblright" unicode="&#x201d;" 
d="M96 524l86 242l80 -37l-115 -229zM294 524l86 242l80 -37l-115 -229z" />
    <glyph glyph-name="guillemotright" unicode="&#xbb;" 
d="M101 80l112 180l-109 184h70l107 -184l-110 -180h-70zM275 80l112 180l-109 184h70l107 -184l-110 -180h-70z" />
    <glyph glyph-name="ellipsis" unicode="&#x2026;" horiz-adv-x="1000" 
d="M111 44c0 31 25 56 56 56s56 -25 56 -56s-25 -56 -56 -56s-56 25 -56 56zM444 44c0 31 25 56 56 56s56 -25 56 -56s-25 -56 -56 -56s-56 25 -56 56zM777 44c0 31 25 56 56 56s56 -25 56 -56s-25 -56 -56 -56s-56 25 -56 56z" />
    <glyph glyph-name="perthousand" unicode="&#x2030;" horiz-adv-x="1000" 
d="M566 165c0 81 -33 125 -76 125s-76 -44 -76 -125s33 -125 76 -125s76 44 76 125zM342 165c0 102 57 177 148 177s148 -75 148 -177s-57 -177 -148 -177s-148 75 -148 177zM8 575c0 102 57 177 148 177s148 -75 148 -177s-57 -177 -148 -177s-148 75 -148 177zM232 575
c0 81 -33 125 -76 125s-76 -44 -76 -125s33 -125 76 -125s76 44 76 125zM920 165c0 81 -33 125 -76 125s-76 -44 -76 -125s33 -125 76 -125s76 44 76 125zM696 165c0 102 57 177 148 177s148 -75 148 -177s-57 -177 -148 -177s-148 75 -148 177zM40 -34l503 808h63
l-503 -808h-63z" />
    <glyph glyph-name="questiondown" unicode="&#xbf;" 
d="M353 371v-51c0 -81 -13 -141 -91 -201c-68 -52 -98 -87 -98 -159c0 -64 41 -114 114 -114c83 0 120 57 120 140h78c0 -83 -33 -210 -200 -210c-107 0 -196 60 -196 188c0 95 47 138 123 198c64 51 72 105 72 144v65h78zM258 498c0 31 25 56 56 56s56 -25 56 -56
s-25 -56 -56 -56s-56 25 -56 56z" />
    <glyph glyph-name="grave" unicode="`" horiz-adv-x="222" 
d="M139 598l-130 142h108l88 -142h-66z" />
    <glyph glyph-name="acute" unicode="&#xb4;" horiz-adv-x="222" 
d="M17 598l88 142h108l-130 -142h-66z" />
    <glyph glyph-name="circumflex" unicode="&#x2c6;" horiz-adv-x="222" 
d="M176 598l-66 93l-66 -93h-79l99 142h92l101 -142h-81z" />
    <glyph glyph-name="tilde" unicode="&#x2dc;" horiz-adv-x="222" 
d="M-8 606h-51c8 66 40 110 104 110c28 0 53 -8 77 -17c23 -9 45 -21 64 -21c32 0 43 28 44 46h51c-8 -66 -40 -110 -104 -110c-28 0 -53 8 -77 17c-23 9 -45 21 -64 21c-32 0 -43 -28 -44 -46z" />
    <glyph glyph-name="macron" unicode="&#xaf;" horiz-adv-x="222" 
d="M-26 633v58h274v-58h-274z" />
    <glyph glyph-name="breve" unicode="&#x2d8;" horiz-adv-x="222" 
d="M-43 740h46c4 -42 44 -78 108 -78s104 36 108 78h46c-4 -82 -55 -136 -154 -136s-150 54 -154 136z" />
    <glyph glyph-name="dotaccent" unicode="&#x2d9;" horiz-adv-x="222" 
d="M55 660c0 31 25 56 56 56s56 -25 56 -56s-25 -56 -56 -56s-56 25 -56 56z" />
    <glyph glyph-name="dieresis" unicode="&#xa8;" horiz-adv-x="222" 
d="M158 660c0 31 25 56 56 56s56 -25 56 -56s-25 -56 -56 -56s-56 25 -56 56zM-48 660c0 31 25 56 56 56s56 -25 56 -56s-25 -56 -56 -56s-56 25 -56 56z" />
    <glyph glyph-name="ring" unicode="&#x2da;" horiz-adv-x="222" 
d="M9 684c0 56 46 102 102 102s102 -46 102 -102s-46 -102 -102 -102s-102 46 -102 102zM173 684c0 34 -28 62 -62 62s-62 -28 -62 -62s28 -62 62 -62s62 28 62 62z" />
    <glyph glyph-name="cedilla" unicode="&#xb8;" horiz-adv-x="222" 
d="M55 -108l-17 21l63 87h48l-46 -62h2c8 3 20 5 38 5c43 0 75 -34 75 -73c0 -67 -64 -94 -122 -94c-40 0 -73 15 -92 22l16 43c16 -10 40 -19 65 -19c30 0 55 10 55 39c0 34 -24 42 -44 42c-14 0 -28 -3 -41 -11z" />
    <glyph glyph-name="hungarumlaut" unicode="&#x2dd;" horiz-adv-x="222" 
d="M103 598l88 142h108l-130 -142h-66zM-69 598l88 142h108l-130 -142h-66z" />
    <glyph glyph-name="ogonek" unicode="&#x2db;" horiz-adv-x="222" 
d="M143 0h48c-48 -47 -79 -86 -79 -122c0 -40 25 -56 52 -56c17 0 30 3 42 8l8 -41c-15 -7 -50 -13 -68 -13c-50 0 -112 27 -112 94c0 48 46 86 109 130z" />
    <glyph glyph-name="caron" unicode="&#x2c7;" horiz-adv-x="222" 
d="M66 598l-101 142h81l66 -93l66 93h79l-99 -142h-92z" />
    <glyph glyph-name="emdash" unicode="&#x2014;" horiz-adv-x="1000" 
d="M0 227v70h1000v-70h-1000z" />
    <glyph glyph-name="AE" unicode="&#xc6;" horiz-adv-x="944" 
d="M477 0v186h-280l-101 -186h-97l427 752h457v-76h-322v-252h312v-76h-312v-272h322v-76h-406zM477 262v438h-2l-237 -438h239z" />
    <glyph glyph-name="ordfeminine" unicode="&#xaa;" horiz-adv-x="361" 
d="M319 663v-154c0 -23 3 -42 6 -60h-61v40h-2c-22 -38 -70 -48 -113 -48c-60 0 -113 35 -113 91c0 55 32 90 121 93l104 4v26c0 37 -18 71 -80 71c-60 0 -80 -25 -86 -57h-58c11 68 64 97 145 97c93 0 137 -37 137 -103zM261 557v38l-98 -4c-32 -1 -69 -13 -69 -53
c0 -38 32 -57 73 -57c44 0 94 24 94 76z" />
    <glyph glyph-name="Lslash" unicode="&#x141;" 
d="M85 0v300l-85 -51v76l85 52v375h84v-324l203 121v-76l-203 -121v-276h352v-76h-436z" />
    <glyph glyph-name="Oslash" unicode="&#xd8;" horiz-adv-x="890" 
d="M216 179l432 434c-47 47 -113 77 -203 77c-209 0 -292 -162 -292 -314c0 -61 19 -136 63 -197zM679 577l-433 -434c46 -48 111 -81 199 -81c211 0 292 190 292 314c0 71 -18 145 -58 201zM61 24l90 90c-55 65 -88 154 -88 262c0 227 165 390 382 390
c105 0 196 -33 262 -94l89 90l33 -34l-89 -90c56 -67 87 -155 87 -262c0 -227 -165 -390 -382 -390c-105 0 -196 33 -262 94l-89 -90z" />
    <glyph glyph-name="OE" unicode="&#x152;" horiz-adv-x="1000" 
d="M602 0v118h-2c-52 -98 -145 -132 -226 -132c-225 0 -318 190 -318 390c0 287 169 390 318 390c146 0 201 -84 226 -126h2v112h351v-76h-267v-252h263v-76h-263v-272h267v-76h-351zM602 388c0 190 -87 302 -229 302c-144 0 -227 -131 -227 -302c0 -220 89 -326 228 -326
s228 126 228 326z" />
    <glyph glyph-name="ordmasculine" unicode="&#xba;" horiz-adv-x="398" 
d="M199 766c118 0 168 -79 168 -162c0 -84 -59 -163 -168 -163c-118 0 -168 79 -168 163c0 83 59 162 168 162zM199 720c-67 0 -110 -49 -110 -116c0 -68 43 -117 110 -117s110 49 110 117c0 67 -43 116 -110 116z" />
    <glyph glyph-name="ae" unicode="&#xe6;" horiz-adv-x="889" 
d="M387 296v17c0 76 -30 131 -124 131c-73 0 -109 -31 -121 -90l-78 2c14 82 71 158 202 158c89 0 143 -34 167 -97c27 45 83 97 190 97c114 0 218 -74 218 -262v-20h-376c0 -82 27 -176 148 -176c87 0 124 45 143 112l81 -9c-29 -89 -101 -173 -220 -173
c-110 0 -155 39 -199 106c-36 -63 -93 -106 -194 -106c-138 0 -176 82 -176 145c0 90 58 150 170 159c53 4 107 5 169 6zM387 213v19c-79 0 -108 -3 -150 -7c-63 -6 -105 -33 -105 -87c0 -55 40 -82 103 -82c103 0 152 53 152 157zM466 296h291c-7 92 -61 148 -140 148
c-100 0 -138 -77 -151 -148z" />
    <glyph glyph-name="dotlessi" unicode="&#x131;" horiz-adv-x="222" 
d="M72 0v500h78v-500h-78z" />
    <glyph glyph-name="lslash" unicode="&#x142;" horiz-adv-x="222" 
d="M72 0v348l-73 -44v60l73 44v344h78v-296l73 44v-60l-73 -44v-396h-78z" />
    <glyph glyph-name="oslash" unicode="&#xf8;" horiz-adv-x="612" 
d="M453 359l-267 -256c30 -30 71 -47 120 -47c108 0 174 81 174 194c0 42 -9 80 -27 109zM158 140l268 256c-29 31 -70 48 -120 48c-108 0 -174 -81 -174 -194c0 -42 9 -80 26 -110zM30 18l68 65c-34 48 -50 107 -50 167c0 133 90 264 258 264c78 0 137 -24 178 -62l65 62
l33 -32l-68 -65c34 -47 50 -107 50 -167c0 -133 -90 -264 -258 -264c-79 0 -138 25 -177 63l-66 -63z" />
    <glyph glyph-name="oe" unicode="&#x153;" horiz-adv-x="944" 
d="M521 296h291c-7 92 -61 148 -140 148c-100 0 -138 -77 -151 -148zM811 168l81 -9c-29 -89 -101 -173 -220 -173c-98 0 -155 39 -196 111c-38 -67 -93 -111 -193 -111c-149 0 -235 110 -235 264c0 133 90 264 245 264c109 0 159 -57 189 -113c39 63 92 113 196 113
c114 0 218 -74 218 -262v-20h-376c0 -82 27 -176 148 -176c87 0 124 45 143 112zM442 255c0 125 -63 189 -152 189c-100 0 -158 -81 -158 -194c0 -129 63 -194 153 -194c129 0 157 129 157 199z" />
    <glyph glyph-name="germandbls" unicode="&#xdf;" 
d="M216 2v70c13 -2 31 -8 56 -8c61 0 145 48 145 173c0 96 -65 152 -156 152h-27v70h34c69 0 119 41 119 118c0 70 -40 119 -122 119c-70 0 -112 -52 -112 -137v-559h-78v569c0 107 61 197 197 197c85 0 193 -53 193 -178c0 -72 -29 -136 -107 -161v-2
c35 -9 143 -39 143 -195c0 -123 -86 -236 -220 -236c-22 0 -47 4 -65 8z" />
    <glyph glyph-name="onesuperior" unicode="&#xb9;" horiz-adv-x="361" 
d="M170 300v364c-24 -18 -60 -37 -98 -49v56c45 15 104 59 125 81h37v-452h-64z" />
    <glyph glyph-name="logicalnot" unicode="&#xac;" horiz-adv-x="600" 
d="M495 108v215h-448v58h506v-273h-58z" />
    <glyph glyph-name="mu" unicode="&#xb5;" 
d="M403 0v79h-2c-34 -64 -88 -93 -159 -93c-41 0 -67 14 -89 40v-236h-78v710h78v-308c0 -104 54 -136 110 -136c73 0 140 56 140 160v284h78v-500h-78z" />
    <glyph glyph-name="trademark" unicode="&#x2122;" horiz-adv-x="990" 
d="M144 340v360h-132v52h322v-52h-132v-360h-58zM784 340v360h-2l-143 -360h-36l-143 360h-2v-360h-58v412h95l128 -323l124 323h95v-412h-58z" />
    <glyph glyph-name="Eth" unicode="&#xd0;" horiz-adv-x="778" 
d="M93 0v363h-59v70h59v319h233c299 0 389 -196 389 -372c0 -188 -117 -380 -357 -380h-265zM177 76h165c192 0 283 151 283 305c0 151 -80 295 -304 295h-144v-243h232v-70h-232v-287z" />
    <glyph glyph-name="onehalf" unicode="&#xbd;" horiz-adv-x="834" 
d="M93 -12l462 764h67l-462 -764h-67zM138 300v364c-24 -18 -60 -37 -98 -49v56c45 15 104 59 125 81h37v-452h-64zM499 0v58l153 145c42 40 78 80 78 126c0 40 -27 65 -81 65c-65 0 -88 -37 -89 -85h-58c2 107 77 143 150 143c98 0 142 -53 142 -113s-26 -107 -82 -159
l-132 -122h214v-58h-295z" />
    <glyph glyph-name="plusminus" unicode="&#xb1;" horiz-adv-x="600" 
d="M271 330v176h58v-176h224v-58h-224v-175h-58v175h-224v58h224zM47 0v58h506v-58h-506z" />
    <glyph glyph-name="Thorn" unicode="&#xde;" horiz-adv-x="611" 
d="M85 0v752h84v-136h155c154 0 246 -87 246 -232c0 -149 -108 -230 -231 -230h-170v-154h-84zM169 230h130c96 0 181 41 181 155c0 109 -72 155 -174 155h-137v-310z" />
    <glyph glyph-name="onequarter" unicode="&#xbc;" horiz-adv-x="834" 
d="M677 0v109h-207v53l209 290h62v-285h53v-58h-53v-109h-64zM677 167v197h-2l-140 -197h142zM133 -12l462 764h67l-462 -764h-67zM138 300v364c-24 -18 -60 -37 -98 -49v56c45 15 104 59 125 81h37v-452h-64z" />
    <glyph glyph-name="divide" unicode="&#xf7;" horiz-adv-x="600" 
d="M47 224v58h506v-58h-506zM241 459c0 33 26 59 59 59s59 -26 59 -59s-26 -59 -59 -59s-59 26 -59 59zM241 47c0 33 26 59 59 59s59 -26 59 -59s-26 -59 -59 -59s-59 26 -59 59z" />
    <glyph glyph-name="brokenbar" unicode="&#xa6;" horiz-adv-x="222" 
d="M82 -14v292h58v-292h-58zM82 474v292h58v-292h-58z" />
    <glyph glyph-name="degree" unicode="&#xb0;" horiz-adv-x="400" 
d="M56 608c0 80 64 144 144 144s144 -64 144 -144s-64 -144 -144 -144s-144 64 -144 144zM298 608c0 51 -47 98 -98 98s-98 -47 -98 -98s47 -98 98 -98s98 47 98 98z" />
    <glyph glyph-name="thorn" unicode="&#xfe;" horiz-adv-x="611" 
d="M479 248c0 132 -76 190 -162 190c-83 0 -164 -61 -164 -192c0 -105 62 -190 167 -190s159 88 159 192zM75 -210v962h78v-339h2c21 32 66 95 177 95c104 0 231 -74 231 -258c0 -156 -103 -264 -241 -264c-88 0 -142 49 -167 95h-2v-291h-78z" />
    <glyph glyph-name="threequarters" unicode="&#xbe;" horiz-adv-x="834" 
d="M677 167v197h-2l-140 -197h142zM677 0v109h-207v53l209 290h62v-285h53v-58h-53v-109h-64zM183 -12l462 764h67l-462 -764h-67zM119 517v50l137 133h-191v52h264v-52l-132 -127v-2c8 2 18 4 29 4c54 0 121 -43 121 -129c0 -77 -48 -146 -157 -146
c-107 0 -141 48 -150 117l58 4c4 -38 25 -69 91 -69c58 0 94 34 94 88c0 58 -42 89 -95 89c-31 0 -50 -4 -64 -14z" />
    <glyph glyph-name="twosuperior" unicode="&#xb2;" horiz-adv-x="361" 
d="M33 300v58l153 145c42 40 78 80 78 126c0 40 -27 65 -81 65c-65 0 -88 -37 -89 -85h-58c2 107 77 143 150 143c98 0 142 -53 142 -113s-26 -107 -82 -159l-132 -122h214v-58h-295z" />
    <glyph glyph-name="registered" unicode="&#xae;" horiz-adv-x="800" 
d="M527 147l-126 197h-95v-197h-58v461h181c108 0 159 -43 159 -130c0 -85 -59 -125 -121 -133l130 -198h-70zM306 396h102c77 0 122 12 122 78c0 68 -40 82 -103 82h-121v-160zM10 376c0 215 175 390 390 390s390 -175 390 -390s-175 -390 -390 -390s-390 175 -390 390z
M732 376c0 194 -144 338 -332 338s-332 -144 -332 -338s144 -338 332 -338s332 144 332 338z" />
    <glyph glyph-name="minus" unicode="&#x2212;" horiz-adv-x="600" 
d="M47 224v58h506v-58h-506z" />
    <glyph glyph-name="eth" unicode="&#xf0;" horiz-adv-x="612" 
d="M480 250c0 113 -66 194 -174 194s-174 -81 -174 -194s66 -194 174 -194s174 81 174 194zM210 580l-38 34l112 61c-33 25 -71 46 -114 65l55 44c46 -20 88 -45 125 -73l114 63l38 -36l-112 -61c112 -100 174 -241 174 -409c0 -151 -80 -282 -258 -282
c-181 0 -258 131 -258 264s90 264 258 264c64 0 119 -27 159 -78h2c-38 86 -83 153 -142 206z" />
    <glyph glyph-name="multiply" unicode="&#xd7;" horiz-adv-x="600" 
d="M259 253l-186 186l41 41l185 -187l187 187l41 -41l-187 -186l187 -186l-41 -41l-187 187l-185 -187l-41 41z" />
    <glyph glyph-name="threesuperior" unicode="&#xb3;" horiz-adv-x="361" 
d="M100 517v50l137 133h-191v52h264v-52l-132 -127v-2c8 2 18 4 29 4c54 0 121 -43 121 -129c0 -77 -48 -146 -157 -146c-107 0 -141 48 -150 117l58 4c4 -38 25 -69 91 -69c58 0 94 34 94 88c0 58 -42 89 -95 89c-31 0 -50 -4 -64 -14z" />
    <glyph glyph-name="copyright" unicode="&#xa9;" horiz-adv-x="800" 
d="M547 299h61c-21 -100 -97 -166 -195 -166c-145 0 -236 107 -236 245c0 141 86 244 233 244c101 0 184 -58 198 -163h-61c-13 61 -63 111 -136 111c-116 0 -176 -80 -176 -191c0 -115 61 -194 178 -194c72 0 123 50 134 114zM10 376c0 215 175 390 390 390
s390 -175 390 -390s-175 -390 -390 -390s-390 175 -390 390zM732 376c0 194 -144 338 -332 338s-332 -144 -332 -338s144 -338 332 -338s332 144 332 338z" />
    <glyph glyph-name="Aacute" unicode="&#xc1;" horiz-adv-x="668" 
d="M462 288l-127 358h-2l-127 -358h256zM8 0l283 752h86l283 -752h-95l-75 212h-312l-75 -212h-95zM275 790l88 142h108l-130 -142h-66z" />
    <glyph glyph-name="Acircumflex" unicode="&#xc2;" horiz-adv-x="668" 
d="M462 288l-127 358h-2l-127 -358h256zM8 0l283 752h86l283 -752h-95l-75 212h-312l-75 -212h-95zM399 790l-66 93l-66 -93h-79l99 142h92l101 -142h-81z" />
    <glyph glyph-name="Adieresis" unicode="&#xc4;" horiz-adv-x="668" 
d="M462 288l-127 358h-2l-127 -358h256zM8 0l283 752h86l283 -752h-95l-75 212h-312l-75 -212h-95zM381 852c0 31 25 56 56 56s56 -25 56 -56s-25 -56 -56 -56s-56 25 -56 56zM175 852c0 31 25 56 56 56s56 -25 56 -56s-25 -56 -56 -56s-56 25 -56 56z" />
    <glyph glyph-name="Agrave" unicode="&#xc0;" horiz-adv-x="668" 
d="M462 288l-127 358h-2l-127 -358h256zM8 0l283 752h86l283 -752h-95l-75 212h-312l-75 -212h-95zM317 790l-130 142h108l88 -142h-66z" />
    <glyph glyph-name="Aring" unicode="&#xc5;" horiz-adv-x="668" 
d="M462 288l-127 358h-2l-127 -358h256zM8 0l283 752h86l283 -752h-95l-75 212h-312l-75 -212h-95zM232 876c0 56 46 102 102 102s102 -46 102 -102s-46 -102 -102 -102s-102 46 -102 102zM396 876c0 34 -28 62 -62 62s-62 -28 -62 -62s28 -62 62 -62s62 28 62 62z" />
    <glyph glyph-name="Atilde" unicode="&#xc3;" horiz-adv-x="668" 
d="M462 288l-127 358h-2l-127 -358h256zM8 0l283 752h86l283 -752h-95l-75 212h-312l-75 -212h-95zM215 798h-51c8 66 40 110 104 110c28 0 53 -8 77 -17c23 -9 45 -21 64 -21c32 0 43 28 44 46h51c-8 -66 -40 -110 -104 -110c-28 0 -53 8 -77 17c-23 9 -45 21 -64 21
c-32 0 -43 -28 -44 -46z" />
    <glyph glyph-name="Ccedilla" unicode="&#xc7;" horiz-adv-x="833" 
d="M779 514l-85 -6c-38 134 -135 182 -249 182c-209 0 -292 -162 -292 -314c0 -150 73 -314 292 -314c142 0 222 82 254 208l86 -10c-31 -123 -112 -261 -320 -273l-36 -49h2c8 3 20 5 38 5c43 0 75 -34 75 -73c0 -67 -64 -94 -122 -94c-40 0 -73 15 -92 22l16 43
c16 -10 40 -19 65 -19c30 0 55 10 55 39c0 34 -24 42 -44 42c-14 0 -28 -3 -41 -11l-17 21l53 74c-208 8 -354 155 -354 389c0 227 165 390 382 390c240 0 313 -148 334 -252z" />
    <glyph glyph-name="Eacute" unicode="&#xc9;" 
d="M85 0v752h424v-76h-340v-252h330v-76h-330v-272h340v-76h-424zM239 790l88 142h108l-130 -142h-66z" />
    <glyph glyph-name="Ecircumflex" unicode="&#xca;" 
d="M85 0v752h424v-76h-340v-252h330v-76h-330v-272h340v-76h-424zM343 790l-66 93l-66 -93h-79l99 142h92l101 -142h-81z" />
    <glyph glyph-name="Edieresis" unicode="&#xcb;" 
d="M85 0v752h424v-76h-340v-252h330v-76h-330v-272h340v-76h-424zM325 852c0 31 25 56 56 56s56 -25 56 -56s-25 -56 -56 -56s-56 25 -56 56zM119 852c0 31 25 56 56 56s56 -25 56 -56s-25 -56 -56 -56s-56 25 -56 56z" />
    <glyph glyph-name="Egrave" unicode="&#xc8;" 
d="M85 0v752h424v-76h-340v-252h330v-76h-330v-272h340v-76h-424zM296 790l-130 142h108l88 -142h-66z" />
    <glyph glyph-name="Iacute" unicode="&#xcd;" horiz-adv-x="278" 
d="M97 0v752h84v-752h-84zM70 790l88 142h108l-130 -142h-66z" />
    <glyph glyph-name="Icircumflex" unicode="&#xce;" horiz-adv-x="278" 
d="M97 0v752h84v-752h-84zM204 790l-66 93l-66 -93h-79l99 142h92l101 -142h-81z" />
    <glyph glyph-name="Idieresis" unicode="&#xcf;" horiz-adv-x="278" 
d="M97 0v752h84v-752h-84zM161 852c0 31 25 56 56 56s56 -25 56 -56s-25 -56 -56 -56s-56 25 -56 56zM-45 852c0 31 25 56 56 56s56 -25 56 -56s-25 -56 -56 -56s-56 25 -56 56z" />
    <glyph glyph-name="Igrave" unicode="&#xcc;" horiz-adv-x="278" 
d="M97 0v752h84v-752h-84zM167 790l-130 142h108l88 -142h-66z" />
    <glyph glyph-name="Ntilde" unicode="&#xd1;" horiz-adv-x="778" 
d="M89 0v752h91l423 -620h2v620h84v-752h-91l-423 620h-2v-620h-84zM270 798h-51c8 66 40 110 104 110c28 0 53 -8 77 -17c23 -9 45 -21 64 -21c32 0 43 28 44 46h51c-8 -66 -40 -110 -104 -110c-28 0 -53 8 -77 17c-23 9 -45 21 -64 21c-32 0 -43 -28 -44 -46z" />
    <glyph glyph-name="Oacute" unicode="&#xd3;" horiz-adv-x="890" 
d="M737 376c0 152 -83 314 -292 314s-292 -162 -292 -314c0 -124 81 -314 292 -314s292 190 292 314zM63 376c0 227 165 390 382 390c221 0 382 -149 382 -390c0 -227 -165 -390 -382 -390c-221 0 -382 149 -382 390zM386 790l88 142h108l-130 -142h-66z" />
    <glyph glyph-name="Ocircumflex" unicode="&#xd4;" horiz-adv-x="890" 
d="M737 376c0 152 -83 314 -292 314s-292 -162 -292 -314c0 -124 81 -314 292 -314s292 190 292 314zM63 376c0 227 165 390 382 390c221 0 382 -149 382 -390c0 -227 -165 -390 -382 -390c-221 0 -382 149 -382 390zM510 790l-66 93l-66 -93h-79l99 142h92l101 -142h-81z
" />
    <glyph glyph-name="Odieresis" unicode="&#xd6;" horiz-adv-x="890" 
d="M737 376c0 152 -83 314 -292 314s-292 -162 -292 -314c0 -124 81 -314 292 -314s292 190 292 314zM63 376c0 227 165 390 382 390c221 0 382 -149 382 -390c0 -227 -165 -390 -382 -390c-221 0 -382 149 -382 390zM492 852c0 31 25 56 56 56s56 -25 56 -56
s-25 -56 -56 -56s-56 25 -56 56zM286 852c0 31 25 56 56 56s56 -25 56 -56s-25 -56 -56 -56s-56 25 -56 56z" />
    <glyph glyph-name="Ograve" unicode="&#xd2;" horiz-adv-x="890" 
d="M737 376c0 152 -83 314 -292 314s-292 -162 -292 -314c0 -124 81 -314 292 -314s292 190 292 314zM63 376c0 227 165 390 382 390c221 0 382 -149 382 -390c0 -227 -165 -390 -382 -390c-221 0 -382 149 -382 390zM438 790l-130 142h108l88 -142h-66z" />
    <glyph glyph-name="Otilde" unicode="&#xd5;" horiz-adv-x="890" 
d="M737 376c0 152 -83 314 -292 314s-292 -162 -292 -314c0 -124 81 -314 292 -314s292 190 292 314zM63 376c0 227 165 390 382 390c221 0 382 -149 382 -390c0 -227 -165 -390 -382 -390c-221 0 -382 149 -382 390zM326 798h-51c8 66 40 110 104 110c28 0 53 -8 77 -17
c23 -9 45 -21 64 -21c32 0 43 28 44 46h51c-8 -66 -40 -110 -104 -110c-28 0 -53 8 -77 17c-23 9 -45 21 -64 21c-32 0 -43 -28 -44 -46z" />
    <glyph glyph-name="Scaron" unicode="&#x160;" horiz-adv-x="667" 
d="M591 556h-86c-4 61 -50 134 -170 134c-119 0 -170 -68 -170 -140c0 -50 30 -97 168 -124c189 -37 274 -83 274 -214c0 -113 -80 -226 -275 -226c-170 0 -264 84 -272 222h85c15 -99 82 -146 191 -146c129 0 181 75 181 142c0 82 -46 108 -179 136
c-173 36 -257 84 -257 210c0 123 101 216 253 216c185 0 242 -101 257 -210zM289 790l-101 142h81l66 -93l66 93h79l-99 -142h-92z" />
    <glyph glyph-name="Uacute" unicode="&#xda;" horiz-adv-x="722" 
d="M85 249v503h84v-490c0 -137 77 -200 192 -200c105 0 192 64 192 217v473h84v-474c0 -197 -123 -292 -276 -292c-183 0 -276 107 -276 263zM302 790l88 142h108l-130 -142h-66z" />
    <glyph glyph-name="Ucircumflex" unicode="&#xdb;" horiz-adv-x="722" 
d="M85 249v503h84v-490c0 -137 77 -200 192 -200c105 0 192 64 192 217v473h84v-474c0 -197 -123 -292 -276 -292c-183 0 -276 107 -276 263zM426 790l-66 93l-66 -93h-79l99 142h92l101 -142h-81z" />
    <glyph glyph-name="Udieresis" unicode="&#xdc;" horiz-adv-x="722" 
d="M85 249v503h84v-490c0 -137 77 -200 192 -200c105 0 192 64 192 217v473h84v-474c0 -197 -123 -292 -276 -292c-183 0 -276 107 -276 263zM408 852c0 31 25 56 56 56s56 -25 56 -56s-25 -56 -56 -56s-56 25 -56 56zM202 852c0 31 25 56 56 56s56 -25 56 -56
s-25 -56 -56 -56s-56 25 -56 56z" />
    <glyph glyph-name="Ugrave" unicode="&#xd9;" horiz-adv-x="722" 
d="M85 249v503h84v-490c0 -137 77 -200 192 -200c105 0 192 64 192 217v473h84v-474c0 -197 -123 -292 -276 -292c-183 0 -276 107 -276 263zM359 790l-130 142h108l88 -142h-66z" />
    <glyph glyph-name="Yacute" unicode="&#xdd;" horiz-adv-x="612" 
d="M266 0v307l-259 445h103l198 -370l194 370h103l-255 -445v-307h-84zM242 790l88 142h108l-130 -142h-66z" />
    <glyph glyph-name="Ydieresis" unicode="&#x178;" horiz-adv-x="612" 
d="M266 0v307l-259 445h103l198 -370l194 370h103l-255 -445v-307h-84zM353 852c0 31 25 56 56 56s56 -25 56 -56s-25 -56 -56 -56s-56 25 -56 56zM147 852c0 31 25 56 56 56s56 -25 56 -56s-25 -56 -56 -56s-56 25 -56 56z" />
    <glyph glyph-name="Zcaron" unicode="&#x17d;" horiz-adv-x="611" 
d="M21 0v70l462 606h-426v76h533v-70l-462 -606h451v-76h-558zM261 790l-101 142h81l66 -93l66 93h79l-99 -142h-92z" />
    <glyph glyph-name="aacute" unicode="&#xe1;" 
d="M399 0v66h-2c-35 -62 -110 -80 -168 -80c-119 0 -181 70 -181 149c0 92 50 146 187 153c55 3 109 6 164 8v38c0 64 -27 116 -127 116c-92 0 -122 -39 -132 -95h-77c16 112 92 159 210 159c134 0 204 -61 204 -168v-248c0 -31 4 -70 7 -98h-85zM399 175v62l-132 -6
c-85 -4 -135 -27 -135 -92c0 -50 43 -89 114 -89c68 0 153 38 153 125zM214 598l88 142h108l-130 -142h-66z" />
    <glyph glyph-name="acircumflex" unicode="&#xe2;" 
d="M399 0v66h-2c-35 -62 -110 -80 -168 -80c-119 0 -181 70 -181 149c0 92 50 146 187 153c55 3 109 6 164 8v38c0 64 -27 116 -127 116c-92 0 -122 -39 -132 -95h-77c16 112 92 159 210 159c134 0 204 -61 204 -168v-248c0 -31 4 -70 7 -98h-85zM399 175v62l-132 -6
c-85 -4 -135 -27 -135 -92c0 -50 43 -89 114 -89c68 0 153 38 153 125zM343 598l-66 93l-66 -93h-79l99 142h92l101 -142h-81z" />
    <glyph glyph-name="adieresis" unicode="&#xe4;" 
d="M399 0v66h-2c-35 -62 -110 -80 -168 -80c-119 0 -181 70 -181 149c0 92 50 146 187 153c55 3 109 6 164 8v38c0 64 -27 116 -127 116c-92 0 -122 -39 -132 -95h-77c16 112 92 159 210 159c134 0 204 -61 204 -168v-248c0 -31 4 -70 7 -98h-85zM399 175v62l-132 -6
c-85 -4 -135 -27 -135 -92c0 -50 43 -89 114 -89c68 0 153 38 153 125zM325 660c0 31 25 56 56 56s56 -25 56 -56s-25 -56 -56 -56s-56 25 -56 56zM119 660c0 31 25 56 56 56s56 -25 56 -56s-25 -56 -56 -56s-56 25 -56 56z" />
    <glyph glyph-name="agrave" unicode="&#xe0;" 
d="M399 0v66h-2c-35 -62 -110 -80 -168 -80c-119 0 -181 70 -181 149c0 92 50 146 187 153c55 3 109 6 164 8v38c0 64 -27 116 -127 116c-92 0 -122 -39 -132 -95h-77c16 112 92 159 210 159c134 0 204 -61 204 -168v-248c0 -31 4 -70 7 -98h-85zM399 175v62l-132 -6
c-85 -4 -135 -27 -135 -92c0 -50 43 -89 114 -89c68 0 153 38 153 125zM276 598l-130 142h108l88 -142h-66z" />
    <glyph glyph-name="aring" unicode="&#xe5;" 
d="M399 0v66h-2c-35 -62 -110 -80 -168 -80c-119 0 -181 70 -181 149c0 92 50 146 187 153c55 3 109 6 164 8v38c0 64 -27 116 -127 116c-92 0 -122 -39 -132 -95h-77c16 112 92 159 210 159c134 0 204 -61 204 -168v-248c0 -31 4 -70 7 -98h-85zM399 175v62l-132 -6
c-85 -4 -135 -27 -135 -92c0 -50 43 -89 114 -89c68 0 153 38 153 125zM176 684c0 56 46 102 102 102s102 -46 102 -102s-46 -102 -102 -102s-102 46 -102 102zM340 684c0 34 -28 62 -62 62s-62 -28 -62 -62s28 -62 62 -62s62 28 62 62z" />
    <glyph glyph-name="atilde" unicode="&#xe3;" 
d="M399 0v66h-2c-35 -62 -110 -80 -168 -80c-119 0 -181 70 -181 149c0 92 50 146 187 153c55 3 109 6 164 8v38c0 64 -27 116 -127 116c-92 0 -122 -39 -132 -95h-77c16 112 92 159 210 159c134 0 204 -61 204 -168v-248c0 -31 4 -70 7 -98h-85zM399 175v62l-132 -6
c-85 -4 -135 -27 -135 -92c0 -50 43 -89 114 -89c68 0 153 38 153 125zM159 606h-51c8 66 40 110 104 110c28 0 53 -8 77 -17c23 -9 45 -21 64 -21c32 0 43 28 44 46h51c-8 -66 -40 -110 -104 -110c-28 0 -53 8 -77 17c-23 9 -45 21 -64 21c-32 0 -43 -28 -44 -46z" />
    <glyph glyph-name="ccedilla" unicode="&#xe7;" 
d="M523 341l-80 -8c-13 38 -41 111 -136 111c-99 0 -175 -76 -175 -197c0 -99 51 -191 171 -191c86 0 123 59 140 116l83 -10c-24 -81 -80 -165 -200 -175l-36 -49h2c8 3 20 5 38 5c43 0 75 -34 75 -73c0 -67 -64 -94 -122 -94c-40 0 -73 15 -92 22l16 43
c16 -10 40 -19 65 -19c30 0 55 10 55 39c0 34 -24 42 -44 42c-14 0 -28 -3 -41 -11l-17 21l54 74c-151 11 -231 130 -231 261c0 167 121 266 255 266c109 0 200 -54 220 -173z" />
    <glyph glyph-name="eacute" unicode="&#xe9;" 
d="M433 153l80 -12c-43 -95 -115 -155 -230 -155c-140 0 -235 106 -235 245c0 168 92 283 239 283c142 0 239 -90 239 -260v-22h-394c0 -116 71 -176 155 -176c90 0 129 56 146 97zM134 296h308c-11 91 -63 148 -153 148c-102 0 -149 -80 -155 -148zM214 598l88 142h108
l-130 -142h-66z" />
    <glyph glyph-name="ecircumflex" unicode="&#xea;" 
d="M433 153l80 -12c-43 -95 -115 -155 -230 -155c-140 0 -235 106 -235 245c0 168 92 283 239 283c142 0 239 -90 239 -260v-22h-394c0 -116 71 -176 155 -176c90 0 129 56 146 97zM134 296h308c-11 91 -63 148 -153 148c-102 0 -149 -80 -155 -148zM343 598l-66 93l-66 -93
h-79l99 142h92l101 -142h-81z" />
    <glyph glyph-name="edieresis" unicode="&#xeb;" 
d="M433 153l80 -12c-43 -95 -115 -155 -230 -155c-140 0 -235 106 -235 245c0 168 92 283 239 283c142 0 239 -90 239 -260v-22h-394c0 -116 71 -176 155 -176c90 0 129 56 146 97zM134 296h308c-11 91 -63 148 -153 148c-102 0 -149 -80 -155 -148zM325 660
c0 31 25 56 56 56s56 -25 56 -56s-25 -56 -56 -56s-56 25 -56 56zM119 660c0 31 25 56 56 56s56 -25 56 -56s-25 -56 -56 -56s-56 25 -56 56z" />
    <glyph glyph-name="egrave" unicode="&#xe8;" 
d="M433 153l80 -12c-43 -95 -115 -155 -230 -155c-140 0 -235 106 -235 245c0 168 92 283 239 283c142 0 239 -90 239 -260v-22h-394c0 -116 71 -176 155 -176c90 0 129 56 146 97zM134 296h308c-11 91 -63 148 -153 148c-102 0 -149 -80 -155 -148zM276 598l-130 142h108
l88 -142h-66z" />
    <glyph glyph-name="iacute" unicode="&#xed;" horiz-adv-x="222" 
d="M72 0v500h78v-500h-78zM47 598l88 142h108l-130 -142h-66z" />
    <glyph glyph-name="icircumflex" unicode="&#xee;" horiz-adv-x="222" 
d="M72 0v500h78v-500h-78zM176 598l-66 93l-66 -93h-79l99 142h92l101 -142h-81z" />
    <glyph glyph-name="idieresis" unicode="&#xef;" horiz-adv-x="222" 
d="M72 0v500h78v-500h-78zM158 660c0 31 25 56 56 56s56 -25 56 -56s-25 -56 -56 -56s-56 25 -56 56zM-48 660c0 31 25 56 56 56s56 -25 56 -56s-25 -56 -56 -56s-56 25 -56 56z" />
    <glyph glyph-name="igrave" unicode="&#xec;" horiz-adv-x="222" 
d="M72 0v500h78v-500h-78zM109 598l-130 142h108l88 -142h-66z" />
    <glyph glyph-name="ntilde" unicode="&#xf1;" 
d="M403 0v302c0 104 -54 136 -110 136c-73 0 -140 -56 -140 -160v-278h-78v500h78v-85h2c34 64 88 93 159 93c60 0 167 -31 167 -172v-336h-78zM159 606h-51c8 66 40 110 104 110c28 0 53 -8 77 -17c23 -9 45 -21 64 -21c32 0 43 28 44 46h51c-8 -66 -40 -110 -104 -110
c-28 0 -53 8 -77 17c-23 9 -45 21 -64 21c-32 0 -43 -28 -44 -46z" />
    <glyph glyph-name="oacute" unicode="&#xf3;" horiz-adv-x="612" 
d="M564 250c0 -133 -90 -264 -258 -264c-181 0 -258 131 -258 264s90 264 258 264c181 0 258 -131 258 -264zM132 250c0 -113 66 -194 174 -194s174 81 174 194s-66 194 -174 194s-174 -81 -174 -194zM242 598l88 142h108l-130 -142h-66z" />
    <glyph glyph-name="ocircumflex" unicode="&#xf4;" horiz-adv-x="612" 
d="M564 250c0 -133 -90 -264 -258 -264c-181 0 -258 131 -258 264s90 264 258 264c181 0 258 -131 258 -264zM132 250c0 -113 66 -194 174 -194s174 81 174 194s-66 194 -174 194s-174 -81 -174 -194zM371 598l-66 93l-66 -93h-79l99 142h92l101 -142h-81z" />
    <glyph glyph-name="odieresis" unicode="&#xf6;" horiz-adv-x="612" 
d="M564 250c0 -133 -90 -264 -258 -264c-181 0 -258 131 -258 264s90 264 258 264c181 0 258 -131 258 -264zM132 250c0 -113 66 -194 174 -194s174 81 174 194s-66 194 -174 194s-174 -81 -174 -194zM353 660c0 31 25 56 56 56s56 -25 56 -56s-25 -56 -56 -56
s-56 25 -56 56zM147 660c0 31 25 56 56 56s56 -25 56 -56s-25 -56 -56 -56s-56 25 -56 56z" />
    <glyph glyph-name="ograve" unicode="&#xf2;" horiz-adv-x="612" 
d="M564 250c0 -133 -90 -264 -258 -264c-181 0 -258 131 -258 264s90 264 258 264c181 0 258 -131 258 -264zM132 250c0 -113 66 -194 174 -194s174 81 174 194s-66 194 -174 194s-174 -81 -174 -194zM304 598l-130 142h108l88 -142h-66z" />
    <glyph glyph-name="otilde" unicode="&#xf5;" horiz-adv-x="612" 
d="M564 250c0 -133 -90 -264 -258 -264c-181 0 -258 131 -258 264s90 264 258 264c181 0 258 -131 258 -264zM132 250c0 -113 66 -194 174 -194s174 81 174 194s-66 194 -174 194s-174 -81 -174 -194zM187 606h-51c8 66 40 110 104 110c28 0 53 -8 77 -17
c23 -9 45 -21 64 -21c32 0 43 28 44 46h51c-8 -66 -40 -110 -104 -110c-28 0 -53 8 -77 17c-23 9 -45 21 -64 21c-32 0 -43 -28 -44 -46z" />
    <glyph glyph-name="scaron" unicode="&#x161;" horiz-adv-x="500" 
d="M451 351h-78c-4 46 -35 93 -123 93c-71 0 -120 -30 -120 -78s38 -70 131 -85c128 -21 201 -52 201 -143c0 -73 -56 -152 -212 -152c-159 0 -203 79 -212 161h78c3 -42 33 -91 132 -91c78 0 137 27 136 78c-1 40 -26 57 -151 78c-101 17 -181 50 -181 146
c0 97 84 156 205 156c112 0 194 -65 194 -163zM205 598l-101 142h81l66 -93l66 93h79l-99 -142h-92z" />
    <glyph glyph-name="uacute" unicode="&#xfa;" 
d="M403 0v79h-2c-34 -64 -88 -93 -159 -93c-73 0 -167 37 -167 185v329h78v-308c0 -104 54 -136 110 -136c73 0 140 56 140 160v284h78v-500h-78zM214 598l88 142h108l-130 -142h-66z" />
    <glyph glyph-name="ucircumflex" unicode="&#xfb;" 
d="M403 0v79h-2c-34 -64 -88 -93 -159 -93c-73 0 -167 37 -167 185v329h78v-308c0 -104 54 -136 110 -136c73 0 140 56 140 160v284h78v-500h-78zM343 598l-66 93l-66 -93h-79l99 142h92l101 -142h-81z" />
    <glyph glyph-name="udieresis" unicode="&#xfc;" 
d="M403 0v79h-2c-34 -64 -88 -93 -159 -93c-73 0 -167 37 -167 185v329h78v-308c0 -104 54 -136 110 -136c73 0 140 56 140 160v284h78v-500h-78zM325 660c0 31 25 56 56 56s56 -25 56 -56s-25 -56 -56 -56s-56 25 -56 56zM119 660c0 31 25 56 56 56s56 -25 56 -56
s-25 -56 -56 -56s-56 25 -56 56z" />
    <glyph glyph-name="ugrave" unicode="&#xf9;" 
d="M403 0v79h-2c-34 -64 -88 -93 -159 -93c-73 0 -167 37 -167 185v329h78v-308c0 -104 54 -136 110 -136c73 0 140 56 140 160v284h78v-500h-78zM276 598l-130 142h108l88 -142h-66z" />
    <glyph glyph-name="yacute" unicode="&#xfd;" horiz-adv-x="500" 
d="M115 -210l96 220l-203 490h89l153 -414h2l154 414h86l-292 -710h-85zM186 598l88 142h108l-130 -142h-66z" />
    <glyph glyph-name="ydieresis" unicode="&#xff;" horiz-adv-x="500" 
d="M115 -210l96 220l-203 490h89l153 -414h2l154 414h86l-292 -710h-85zM297 660c0 31 25 56 56 56s56 -25 56 -56s-25 -56 -56 -56s-56 25 -56 56zM91 660c0 31 25 56 56 56s56 -25 56 -56s-25 -56 -56 -56s-56 25 -56 56z" />
    <glyph glyph-name="zcaron" unicode="&#x17e;" horiz-adv-x="444" 
d="M28 0v68l291 362h-281v70h378v-68l-291 -362h291v-70h-388zM177 598l-101 142h81l66 -93l66 93h79l-99 -142h-92z" />
    <glyph glyph-name="Delta" unicode="&#x2206;" horiz-adv-x="649" 
d="M32 0v52l251 704h86l248 -703v-53h-585zM107 62h430l-146 407c-17 57 -53 145 -66 195h-4c-9 -42 -42 -122 -60 -180z" />
    <glyph glyph-name="Omega" unicode="&#x2126;" horiz-adv-x="719" 
d="M199 63v3c-72 68 -136 183 -136 330c0 209 130 352 300 352c178 0 291 -162 291 -347c0 -153 -69 -274 -137 -335v-3h151v-63h-240v46c77 55 151 174 151 341c-1 137 -73 297 -218 297c-136 0 -222 -132 -222 -300c0 -156 74 -285 150 -338v-46h-239v63h149z" />
    <glyph glyph-name="uni03BC" unicode="&#x3bc;" 
d="M403 0v79h-2c-34 -64 -88 -93 -159 -93c-41 0 -67 14 -89 40v-236h-78v710h78v-308c0 -104 54 -136 110 -136c73 0 140 56 140 160v284h78v-500h-78z" />
    <glyph glyph-name="pi" unicode="&#x3c0;" horiz-adv-x="572" 
d="M545 482h-81v-329c0 -87 7 -125 14 -153h-72c-9 17 -17 61 -17 146v336h-182c-5 -137 -36 -380 -74 -482h-73c39 114 69 340 73 482c-62 0 -90 -5 -111 -12l-12 50c25 16 67 28 144 28h398z" />
    <glyph glyph-name="Euro" unicode="&#x20ac;" 
d="M447 167c-15 -74 -70 -109 -119 -109c-107 0 -150 99 -165 215h218l18 58h-242c-1 13 -1 26 -1 39c0 17 0 33 1 50h270l18 58h-282c17 110 58 204 158 204c74 0 125 -44 129 -130l84 7c-4 88 -43 193 -212 193c-132 0 -214 -110 -241 -274h-60l-18 -58h71
c-1 -16 -2 -33 -2 -50c0 -13 0 -26 1 -39h-52l-18 -58h75c23 -181 114 -285 246 -285c139 0 196 89 207 172z" />
    <glyph glyph-name="afii61289" unicode="&#x2113;" horiz-adv-x="487" 
d="M428 153l36 -32c-44 -84 -108 -128 -186 -128c-118 0 -163 91 -167 197v15c-18 -15 -39 -33 -58 -49l-23 44c29 25 56 47 80 72v290c0 190 79 250 155 250c84 0 123 -73 123 -168c0 -133 -82 -260 -207 -386l1 -37c0 -121 51 -168 110 -168c63 0 111 53 136 100zM181 566
v-232c88 99 156 204 156 309c0 67 -20 112 -72 112c-38 0 -84 -47 -84 -189z" />
    <glyph glyph-name="estimated" unicode="&#x212e;" horiz-adv-x="921" 
d="M884 359h-687c-3 0 -5 -1 -5 -4v-208c0 -9 3 -17 9 -24c66 -69 158 -113 260 -113c109 0 206 50 273 127h61c-76 -90 -199 -148 -336 -148c-233 0 -423 170 -423 381s190 382 423 382c236 0 425 -171 425 -382v-11zM728 386v210c0 9 -3 18 -10 24
c-66 66 -157 109 -257 109c-101 0 -193 -44 -259 -112c-7 -7 -10 -16 -10 -26v-205c0 -2 2 -6 5 -6h527c3 0 4 4 4 6z" />
    <glyph glyph-name="partialdiff" unicode="&#x2202;" horiz-adv-x="549" 
d="M103 713l-26 56c33 27 86 58 167 58c129 0 253 -124 253 -397c0 -254 -89 -437 -261 -437c-130 0 -192 119 -192 242c0 165 102 270 214 270c92 0 148 -66 165 -97h1c1 12 1 32 1 45c0 185 -86 311 -189 311c-61 0 -105 -27 -133 -51zM242 56h1c96 0 159 130 172 274
c-15 47 -68 113 -145 113c-84 0 -152 -94 -152 -208c0 -105 48 -179 124 -179z" />
    <glyph glyph-name="product" unicode="&#x220f;" horiz-adv-x="702" 
d="M674 667h-109v-769h-73v769h-283v-769h-73v769h-109v69h647v-69z" />
    <glyph glyph-name="summation" unicode="&#x2211;" 
d="M533 -102h-509v51l271 367l-259 367v53h481v-65h-379v-4l242 -339l-262 -354v-4h415v-72z" />
    <glyph glyph-name="uni2219" unicode="&#x2219;" horiz-adv-x="278" 
d="M80 327c0 33 26 59 59 59s59 -26 59 -59s-26 -59 -59 -59s-59 26 -59 59z" />
    <glyph glyph-name="radical" unicode="&#x221a;" horiz-adv-x="578" 
d="M576 875l-223 -1033h-66l-162 491l-75 -29l-15 47l137 53l129 -390c6 -26 13 -57 17 -77l1 -1c3 20 9 51 14 77l187 862h56z" />
    <glyph glyph-name="infinity" unicode="&#x221e;" horiz-adv-x="792" 
d="M741 307v-1c0 -100 -75 -163 -156 -163c-65 0 -116 40 -187 122c-54 -62 -110 -122 -194 -122c-83 0 -152 69 -152 159c0 93 67 161 159 161c77 0 136 -58 190 -122c53 59 105 123 191 122c89 0 149 -64 149 -156zM211 191h1c66 0 116 64 159 109
c-46 56 -93 117 -166 117c-66 0 -103 -54 -103 -116c1 -61 44 -110 109 -110zM587 417h-1c-69 0 -124 -76 -160 -112c68 -75 107 -114 163 -114c65 0 101 57 101 111c0 73 -44 115 -103 115z" />
    <glyph glyph-name="integral" unicode="&#x222b;" horiz-adv-x="364" 
d="M346 885l-13 -53c-9 6 -23 11 -37 11c-17 0 -37 -8 -51 -26c-26 -31 -34 -87 -34 -188c0 -165 13 -361 13 -532c0 -114 -20 -176 -44 -213c-22 -36 -61 -53 -100 -53c-26 0 -53 9 -65 17l13 55c9 -4 26 -12 45 -12c18 0 36 8 48 25c19 26 34 74 34 182
c0 172 -13 372 -13 538c0 115 14 180 54 222c25 28 60 41 95 41c21 0 44 -7 55 -14z" />
    <glyph glyph-name="approxequal" unicode="&#x2248;" horiz-adv-x="568" 
d="M490 449l31 -27c-26 -54 -67 -97 -130 -97c-41 0 -69 15 -118 42c-32 19 -61 35 -95 35c-47 0 -74 -36 -100 -76l-32 26c30 60 80 98 139 98c50 0 86 -27 114 -42c35 -19 59 -36 95 -36c41 0 68 27 96 77zM490 276l31 -27c-27 -54 -67 -98 -130 -98c-41 0 -69 16 -118 43
c-32 19 -61 36 -94 36c-48 0 -76 -38 -101 -78l-32 26c30 61 80 99 139 99c50 0 86 -27 114 -41c33 -19 59 -37 96 -37c41 0 67 27 95 77z" />
    <glyph glyph-name="notequal" unicode="&#x2260;" horiz-adv-x="568" 
d="M403 523l-45 -100h158v-49h-178l-68 -150h246v-49h-266l-54 -119l-39 17l46 102h-151v49h172l67 150h-239v49h259l53 118z" />
    <glyph glyph-name="lessequal" unicode="&#x2264;" horiz-adv-x="568" 
d="M513 105l-455 232v51l455 232v-59l-403 -196v-3l403 -198v-59zM516 11h-464v51h464v-51z" />
    <glyph glyph-name="greaterequal" unicode="&#x2265;" horiz-adv-x="568" 
d="M59 620l455 -232v-51l-455 -232v59l402 197v3l-402 197v59zM516 11h-463v51h463v-51z" />
    <glyph glyph-name="lozenge" unicode="&#x25ca;" horiz-adv-x="579" 
d="M522 368l-204 -413h-61l-201 413l204 413h61zM453 366l-144 294c-8 18 -15 41 -19 56h-3c-4 -16 -11 -36 -19 -56l-144 -290l145 -297c9 -21 15 -42 18 -54h4c3 13 11 39 18 53z" />
    <glyph glyph-name="uni00A0" unicode="&#xa0;" horiz-adv-x="278" 
 />
    <glyph glyph-name="uni00AD" unicode="&#xad;" horiz-adv-x="334" 
d="M44 224v76h246v-76h-246z" />
    <glyph glyph-name="uni02C9" unicode="&#x2c9;" horiz-adv-x="222" 
d="M-26 633v58h274v-58h-274z" />
    <glyph glyph-name="uni03A9" unicode="&#x3a9;" horiz-adv-x="719" 
d="M199 63v3c-72 68 -136 183 -136 330c0 209 130 352 300 352c178 0 291 -162 291 -347c0 -153 -69 -274 -137 -335v-3h151v-63h-240v46c77 55 151 174 151 341c-1 137 -73 297 -218 297c-136 0 -222 -132 -222 -300c0 -156 74 -285 150 -338v-46h-239v63h149z" />
    <glyph glyph-name="uni2215" unicode="&#x2215;" horiz-adv-x="167" 
d="M-181 -12l462 764h67l-462 -764h-67z" />
    </font>
</defs>
</svg>
