<?xml version="1.0" standalone="no"?>
<!DOCTYPE svg PUBLIC "-//W3C//DTD SVG 1.1//EN" "http://www.w3.org/Graphics/SVG/1.1/DTD/svg11.dtd" >
<svg xmlns="http://www.w3.org/2000/svg" xmlns:xlink="http://www.w3.org/1999/xlink" version="1.1">
<metadata>
Created by FontForge 20170910 at Fri May 12 15:03:08 2006
 By Jimmy Wärting
 The digitally encoded machine readable software for producing the
 Typefaces licensed to you is copyrighted (c) 1990, 2001, 2002 Adobe Systems.
 All Rights Reserved. This software is the property of Adobe Systems
 Incorporated and its licensors, and may not be reproduced, used, 
 displayed, modified, disclosed or transferred without the express 
 written approval of Adobe.
 
 The digitally encoded machine readable outline data for producing the Typefaces 
 provided as part of your laser printer is copyrighted (c) 1981, 2001, 2002 Heidelberger Druckmaschinen AG. 
 All rights reserved. This data is the property of Heidelberger Druckmaschinen AG, 
 and may not be reproduced, used, displayed, modified, disclosed or transferred 
 without the express written approval of Heidelberger Druckmaschinen AG. 
</metadata>
<defs>
<font id="NeuzeitSLTStd-BookHeavy" horiz-adv-x="556" >
  <font-face 
    font-family="Neuzeit S LT Std"
    font-weight="850"
    font-stretch="normal"
    units-per-em="1000"
    panose-1="0 0 9 0 0 0 0 0 0 0"
    ascent="752"
    descent="-248"
    x-height="514"
    cap-height="752"
    bbox="-171 -234 1000 981"
    underline-thickness="50"
    underline-position="-100"
    stemh="122"
    stemv="144"
    unicode-range="U+0020-FB02"
  />
<missing-glyph horiz-adv-x="500" 
d="M0 0v700h500v-700h-500zM250 395l170 255h-340zM280 350l170 -255v510zM80 50h340l-170 255zM50 605v-510l170 255z" />
    <glyph glyph-name="fi" unicode="fi" horiz-adv-x="611" 
d="M84 0v404h-73v110h73v67c0 144 72 177 199 177h28v-122h-40c-25 0 -43 -13 -43 -42v-80h83v-110h-83v-404h-144zM400 0v514h144v-514h-144zM472 590c-48 0 -84 43 -84 83c0 42 36 85 84 85c43 0 84 -37 84 -83c0 -44 -38 -85 -84 -85z" />
    <glyph glyph-name="fl" unicode="fl" horiz-adv-x="611" 
d="M84 0v404h-73v110h73v67c0 144 72 177 199 177h28v-122h-40c-25 0 -43 -13 -43 -42v-80h83v-110h-83v-404h-144zM400 0v752h144v-752h-144z" />
    <glyph glyph-name=".notdef" horiz-adv-x="500" 
d="M0 0v700h500v-700h-500zM250 395l170 255h-340zM280 350l170 -255v510zM80 50h340l-170 255zM50 605v-510l170 255z" />
    <glyph glyph-name="space" unicode=" " horiz-adv-x="278" 
 />
    <glyph glyph-name="exclam" unicode="!" horiz-adv-x="332" 
d="M94 236v516h144v-516h-144zM82 72c0 46 38 84 84 84s84 -38 84 -84s-38 -84 -84 -84s-84 38 -84 84z" />
    <glyph glyph-name="quotedbl" unicode="&#x22;" horiz-adv-x="333" 
d="M221 474v278h104v-278h-104zM8 474v278h104v-278h-104z" />
    <glyph glyph-name="numbersign" unicode="#" 
d="M94 0l28 216h-89v86h101l17 136h-88v86h100l28 216h89l-28 -216h102l28 216h89l-28 -216h80v-86h-92l-17 -136h79v-86h-91l-29 -216h-88l28 216h-102l-29 -216h-88zM325 302l17 136h-102l-17 -136h102z" />
    <glyph glyph-name="dollar" unicode="$" 
d="M304 308v-207c50 5 82 46 82 102c0 64 -32 84 -82 105zM250 102v217c-56 13 -211 63 -211 219c0 126 75 199 211 214v77h54v-77c54 -5 202 -19 208 -211h-138c-10 83 -33 92 -70 101v-198c127 -35 220 -88 220 -234c0 -180 -155 -214 -220 -222v-112h-54v112
c-56 6 -214 22 -218 220h138c2 -35 4 -94 80 -106zM250 459v183c-35 -7 -73 -23 -73 -91c0 -66 46 -82 73 -92z" />
    <glyph glyph-name="percent" unicode="%" horiz-adv-x="1000" 
d="M284 450c47 0 57 54 57 111s-10 111 -57 111s-57 -54 -57 -111s10 -111 57 -111zM284 370c-95 0 -167 62 -167 191s72 191 167 191s167 -62 167 -191s-72 -191 -167 -191zM716 -12c-95 0 -167 62 -167 191s72 191 167 191s167 -62 167 -191s-72 -191 -167 -191zM716 68
c47 0 57 54 57 111s-10 111 -57 111s-57 -54 -57 -111s10 -111 57 -111zM235 -21l435 782h82l-431 -782h-86z" />
    <glyph glyph-name="ampersand" unicode="&#x26;" horiz-adv-x="722" 
d="M424 150l-154 196c-67 -47 -78 -88 -78 -124c0 -69 60 -114 120 -114c49 0 87 17 112 42zM404 591c0 38 -33 57 -61 57c-34 0 -64 -22 -64 -59c0 -20 11 -44 45 -95c61 42 80 63 80 97zM540 384h132c-12 -115 -29 -166 -76 -238l117 -146h-165l-42 54
c-41 -32 -113 -68 -202 -68c-165 0 -256 104 -256 233c0 107 72 187 151 222c-36 63 -52 103 -52 144c0 88 75 167 188 167c147 0 189 -103 189 -151c0 -93 -56 -159 -135 -196l120 -150c17 25 31 85 31 129z" />
    <glyph glyph-name="quoteright" unicode="&#x2019;" horiz-adv-x="278" 
d="M109 766l134 -42l-115 -264l-93 28z" />
    <glyph glyph-name="parenleft" unicode="(" horiz-adv-x="333" 
d="M318 -129l-88 -70c-27 27 -198 210 -198 494s171 467 198 494l88 -70c-84 -105 -160 -228 -160 -424s76 -319 160 -424z" />
    <glyph glyph-name="parenright" unicode=")" horiz-adv-x="333" 
d="M15 719l88 70c27 -27 198 -210 198 -494s-171 -467 -198 -494l-88 70c84 105 160 228 160 424s-76 319 -160 424z" />
    <glyph glyph-name="asterisk" unicode="*" 
d="M351 384l-76 115l-73 -116l-73 51l82 109l-128 37l24 81l127 -43l-4 134h90l-4 -136l127 49l30 -84l-133 -39l86 -105z" />
    <glyph glyph-name="plus" unicode="+" horiz-adv-x="600" 
d="M248 305v201h104v-201h201v-104h-201v-201h-104v201h-201v104h201z" />
    <glyph glyph-name="comma" unicode="," horiz-adv-x="278" 
d="M4 -139l81 301l141 -46l-128 -286z" />
    <glyph glyph-name="hyphen" unicode="-" horiz-adv-x="333" 
d="M20 195v134h293v-134h-293z" />
    <glyph glyph-name="period" unicode="." horiz-adv-x="278" 
d="M55 72c0 46 38 84 84 84s84 -38 84 -84s-38 -84 -84 -84s-84 38 -84 84z" />
    <glyph glyph-name="slash" unicode="/" horiz-adv-x="444" 
d="M20 -14l294 780h110l-294 -780h-110z" />
    <glyph glyph-name="zero" unicode="0" 
d="M33 370c0 112 5 382 245 382s245 -270 245 -382c0 -167 -40 -382 -245 -382s-245 215 -245 382zM373 370c0 130 -6 254 -95 254s-95 -124 -95 -254c0 -150 19 -254 95 -254s95 104 95 254z" />
    <glyph glyph-name="one" unicode="1" 
d="M248 0v565c-40 -28 -96 -64 -166 -94v135c47 26 140 76 199 146h111v-752h-144z" />
    <glyph glyph-name="two" unicode="2" 
d="M31 0v113l271 290c53 56 65 93 65 131c0 44 -30 90 -89 90c-61 0 -98 -42 -98 -134h-138v16c0 181 134 246 236 246c141 0 239 -92 239 -214c0 -94 -41 -156 -165 -281l-128 -129h301v-128h-494z" />
    <glyph glyph-name="three" unicode="3" 
d="M174 322v126l150 164h-269v128h439v-122l-166 -168c123 0 200 -92 200 -213c0 -147 -107 -249 -257 -249c-93 0 -231 43 -243 217l144 9c4 -87 76 -98 99 -98c62 0 107 56 107 116c0 69 -55 114 -112 114c-38 0 -73 -15 -92 -24z" />
    <glyph glyph-name="four" unicode="4" 
d="M313 294v294h-2l-177 -294h179zM21 184v125l267 431h163v-446h84v-110h-84v-184h-138v184h-292z" />
    <glyph glyph-name="five" unicode="5" 
d="M52 318l14 422h422v-128h-298l-10 -169c38 30 83 41 128 41c107 0 218 -73 218 -240c0 -136 -90 -256 -252 -256c-82 0 -220 28 -244 188l146 13c12 -33 27 -73 98 -73c43 0 102 25 102 127c0 65 -46 113 -100 113c-38 0 -70 -9 -95 -45z" />
    <glyph glyph-name="six" unicode="6" 
d="M511 565l-144 -9c-1 24 -15 68 -77 68c-104 0 -111 -110 -119 -222h2c26 33 56 68 135 68c109 0 220 -72 220 -232c0 -158 -105 -250 -243 -250c-256 0 -257 285 -257 371c0 170 37 393 267 393c155 0 212 -107 216 -187zM384 229c0 52 -23 119 -100 119
s-100 -67 -100 -119s23 -119 100 -119s100 67 100 119z" />
    <glyph glyph-name="seven" unicode="7" 
d="M33 612v128h490v-127c-59 -91 -184 -327 -231 -613h-158c65 335 177 497 237 612h-338z" />
    <glyph glyph-name="eight" unicode="8" 
d="M379 224c0 94 -64 116 -101 116s-101 -22 -101 -116c0 -65 38 -114 101 -114s101 49 101 114zM278 450c52 0 85 36 85 93s-33 93 -85 93s-85 -36 -85 -93s33 -93 85 -93zM33 224c0 101 49 153 118 179c-55 22 -96 71 -96 146c0 116 79 203 223 203s223 -87 223 -203
c0 -75 -41 -124 -96 -146c69 -26 118 -78 118 -179c0 -167 -127 -236 -245 -236s-245 69 -245 236z" />
    <glyph glyph-name="nine" unicode="9" 
d="M45 175l144 9c1 -24 15 -68 77 -68c104 0 111 110 119 222h-2c-26 -33 -56 -68 -135 -68c-109 0 -220 72 -220 232c0 158 105 250 243 250c256 0 257 -285 257 -371c0 -170 -37 -393 -267 -393c-155 0 -212 107 -216 187zM372 511c0 52 -23 119 -100 119
s-100 -67 -100 -119s23 -119 100 -119s100 67 100 119z" />
    <glyph glyph-name="colon" unicode=":" horiz-adv-x="278" 
d="M139 339c-46 0 -84 38 -84 84s38 84 84 84s84 -38 84 -84s-38 -84 -84 -84zM139 -12c-46 0 -84 38 -84 84s38 84 84 84s84 -38 84 -84s-38 -84 -84 -84z" />
    <glyph glyph-name="semicolon" unicode=";" horiz-adv-x="278" 
d="M85 162l141 -46l-128 -286l-94 31zM55 423c0 46 38 84 84 84s84 -38 84 -84s-38 -84 -84 -84s-84 38 -84 84z" />
    <glyph glyph-name="less" unicode="&#x3c;" horiz-adv-x="600" 
d="M553 94v-102l-506 218v86l506 218v-102l-372 -159z" />
    <glyph glyph-name="equal" unicode="=" horiz-adv-x="600" 
d="M553 414v-104h-506v104h506zM553 196v-104h-506v104h506z" />
    <glyph glyph-name="greater" unicode="&#x3e;" horiz-adv-x="600" 
d="M47 94l372 159l-372 159v102l506 -218v-86l-506 -218v102z" />
    <glyph glyph-name="question" unicode="?" 
d="M325 236h-138v31c0 160 172 178 172 298c0 54 -39 79 -82 79c-58 0 -86 -37 -86 -93v-12h-138c0 141 88 227 228 227c113 0 222 -62 222 -200c0 -172 -178 -190 -178 -309v-21zM262 -12c-46 0 -84 38 -84 84s38 84 84 84s84 -38 84 -84s-38 -84 -84 -84z" />
    <glyph glyph-name="at" unicode="@" horiz-adv-x="800" 
d="M498 393c0 51 -35 87 -84 87c-68 0 -114 -73 -114 -143c0 -47 30 -86 78 -86c66 0 120 75 120 142zM529 514l13 55h90l-59 -262c-3 -13 -7 -29 -7 -43c0 -13 4 -22 16 -22c56 0 119 69 119 180c0 168 -124 258 -286 258c-176 0 -291 -132 -291 -306
c0 -181 127 -302 307 -302c85 0 161 32 216 80h92c-72 -105 -185 -166 -315 -166c-242 0 -404 165 -404 390c0 221 180 390 398 390c187 0 363 -126 363 -319c0 -221 -192 -300 -260 -300c-36 0 -55 21 -61 46h-2c-18 -25 -53 -46 -97 -46c-105 0 -177 75 -177 181
c0 127 80 256 220 256c51 0 95 -21 125 -70z" />
    <glyph glyph-name="A" unicode="A" horiz-adv-x="722" 
d="M456 279l-96 292h-2l-95 -292h193zM547 0l-51 157h-275l-49 -157h-162l274 752h158l270 -752h-165z" />
    <glyph glyph-name="B" unicode="B" horiz-adv-x="667" 
d="M83 0v752h267c160 0 243 -82 243 -204c0 -83 -47 -130 -101 -155v-2c67 -16 125 -77 125 -171c0 -138 -106 -220 -261 -220h-273zM233 128h99c95 0 129 42 129 95c0 48 -30 98 -117 98h-111v-193zM233 443h91c71 0 119 32 119 92c0 62 -46 89 -106 89h-104v-181z" />
    <glyph glyph-name="C" unicode="C" horiz-adv-x="778" 
d="M727 495l-151 -10c-22 97 -88 147 -174 147c-122 0 -196 -117 -196 -257c0 -159 78 -255 200 -255c72 0 142 48 168 133l154 -11c-52 -168 -174 -256 -328 -256c-204 0 -350 138 -350 390c0 227 143 390 350 390c158 0 288 -78 327 -271z" />
    <glyph glyph-name="D" unicode="D" horiz-adv-x="778" 
d="M83 0v752h283c228 0 362 -134 362 -376c0 -240 -166 -376 -358 -376h-287zM233 128h127c154 0 212 132 212 249c0 126 -54 247 -224 247h-115v-496z" />
    <glyph glyph-name="E" unicode="E" horiz-adv-x="611" 
d="M83 0v752h480v-134h-330v-171h321v-134h-321v-179h330v-134h-480z" />
    <glyph glyph-name="F" unicode="F" 
d="M83 0v752h441v-134h-291v-171h284v-134h-284v-313h-150z" />
    <glyph glyph-name="G" unicode="G" horiz-adv-x="833" 
d="M436 277v128h347c-6 -279 -160 -419 -367 -419c-223 0 -366 188 -366 390s143 390 366 390c247 0 315 -154 343 -234l-157 -10c-27 66 -81 110 -186 110c-118 0 -210 -96 -210 -256c0 -135 85 -256 220 -256c121 0 177 86 190 157h-180z" />
    <glyph glyph-name="H" unicode="H" horiz-adv-x="778" 
d="M545 0v313h-312v-313h-150v752h150v-305h312v305h150v-752h-150z" />
    <glyph glyph-name="I" unicode="I" horiz-adv-x="332" 
d="M91 0v752h150v-752h-150z" />
    <glyph glyph-name="J" unicode="J" horiz-adv-x="444" 
d="M24 618v134h344v-496c0 -238 -142 -262 -294 -262h-48v128h77c73 0 115 22 115 100v396h-194z" />
    <glyph glyph-name="K" unicode="K" horiz-adv-x="667" 
d="M235 399l241 353h179l-259 -361l264 -391h-187l-238 369h-2v-369h-150v752h150v-353h2z" />
    <glyph glyph-name="L" unicode="L" 
d="M83 0v752h150v-612h289v-140h-439z" />
    <glyph glyph-name="M" unicode="M" horiz-adv-x="944" 
d="M717 0v502h-2l-201 -502h-84l-201 492h-2v-492h-144v752h171l218 -512l218 512h171v-752h-144z" />
    <glyph glyph-name="N" unicode="N" horiz-adv-x="778" 
d="M540 0l-311 513h-2v-513h-144v752h161l305 -505h2v505h144v-752h-155z" />
    <glyph glyph-name="O" unicode="O" horiz-adv-x="832" 
d="M626 376c0 135 -70 256 -210 256s-210 -121 -210 -256s70 -256 210 -256s210 121 210 256zM50 376c0 202 132 390 366 390s366 -188 366 -390s-132 -390 -366 -390s-366 188 -366 390z" />
    <glyph glyph-name="P" unicode="P" horiz-adv-x="611" 
d="M233 403h84c99 0 122 60 122 110c0 51 -35 111 -121 111h-85v-221zM83 0v752h245c118 0 261 -54 261 -239c0 -173 -129 -238 -249 -238h-107v-275h-150z" />
    <glyph glyph-name="Q" unicode="Q" horiz-adv-x="833" 
d="M709 -43l-93 83c-58 -36 -125 -54 -200 -54c-234 0 -366 188 -366 390s132 390 366 390s366 -188 366 -390c0 -89 -28 -180 -77 -247l91 -78zM439 197l82 90l69 -59c24 40 36 95 36 148c0 135 -70 256 -210 256s-210 -121 -210 -256s70 -256 210 -256c30 0 68 8 89 19z
" />
    <glyph glyph-name="R" unicode="R" horiz-adv-x="667" 
d="M468 0l-147 297h-88v-297h-150v752h281c158 0 248 -99 248 -224c0 -79 -43 -182 -140 -211l175 -317h-179zM233 419h100c103 0 129 55 129 103c0 54 -26 102 -134 102h-95v-205z" />
    <glyph glyph-name="S" unicode="S" horiz-adv-x="667" 
d="M597 557l-150 -3c0 52 -50 84 -110 84c-75 0 -120 -33 -120 -83c0 -52 50 -77 87 -89l138 -44c100 -32 171 -90 171 -206c0 -92 -66 -230 -274 -230c-261 0 -285 169 -285 236l150 3c0 -80 63 -111 136 -111c51 0 123 25 123 83c0 40 -17 61 -91 88l-164 59
c-83 30 -141 103 -141 188c0 96 66 234 261 234c232 0 269 -154 269 -209z" />
    <glyph glyph-name="T" unicode="T" horiz-adv-x="610" 
d="M230 0v618h-198v134h546v-134h-198v-618h-150z" />
    <glyph glyph-name="U" unicode="U" horiz-adv-x="778" 
d="M552 311v441h150v-440c0 -235 -149 -326 -313 -326s-313 91 -313 326v440h150v-441c0 -125 56 -191 163 -191s163 66 163 191z" />
    <glyph glyph-name="V" unicode="V" horiz-adv-x="667" 
d="M338 199l157 553h162l-244 -752h-158l-245 752h165l161 -553h2z" />
    <glyph glyph-name="W" unicode="W" horiz-adv-x="1000" 
d="M625 0l-122 524h-2l-124 -524h-159l-194 752h160l117 -553h2l118 553h162l123 -553h2l109 553h159l-192 -752h-159z" />
    <glyph glyph-name="X" unicode="X" horiz-adv-x="667" 
d="M474 0l-142 253l-144 -253h-180l237 380l-222 372h179l137 -254l136 254h176l-225 -372l233 -380h-185z" />
    <glyph glyph-name="Y" unicode="Y" horiz-adv-x="611" 
d="M308 463l128 289h165l-219 -451v-301h-150v301l-222 451h175z" />
    <glyph glyph-name="Z" unicode="Z" horiz-adv-x="611" 
d="M36 0v118l349 500h-325v134h515v-118l-350 -500h350v-134h-539z" />
    <glyph glyph-name="bracketleft" unicode="[" horiz-adv-x="333" 
d="M74 -192v974h243v-98h-117v-778h117v-98h-243z" />
    <glyph glyph-name="backslash" unicode="\" horiz-adv-x="444" 
d="M314 -14l-294 780h110l294 -780h-110z" />
    <glyph glyph-name="bracketright" unicode="]" horiz-adv-x="333" 
d="M259 782v-974h-243v98h117v778h-117v98h243z" />
    <glyph glyph-name="asciicircum" unicode="^" horiz-adv-x="600" 
d="M66 355l187 385h94l187 -385h-104l-130 280l-130 -280h-104z" />
    <glyph glyph-name="underscore" unicode="_" horiz-adv-x="500" 
d="M0 -125v50h500v-50h-500z" />
    <glyph glyph-name="quoteleft" unicode="&#x2018;" horiz-adv-x="278" 
d="M243 738l-74 -278l-134 42l114 264z" />
    <glyph glyph-name="a" unicode="a" horiz-adv-x="611" 
d="M400 177v47l-120 -11c-66 -6 -88 -26 -88 -63c0 -46 42 -60 90 -60c45 0 118 25 118 87zM406 0v67h-2c-48 -63 -116 -81 -176 -81c-81 0 -180 40 -180 157c0 55 18 146 219 158l133 8v24c0 61 -38 91 -101 91c-59 0 -94 -30 -97 -76h-138c5 79 61 180 241 180
c127 0 233 -48 233 -166v-298c0 -27 3 -45 7 -64h-139z" />
    <glyph glyph-name="b" unicode="b" horiz-adv-x="667" 
d="M475 254c0 78 -43 152 -126 152c-90 0 -132 -73 -132 -150c0 -86 46 -154 128 -154c85 0 130 71 130 152zM78 0v752h144v-308h2c48 63 97 84 163 84c148 0 238 -127 238 -270s-97 -272 -240 -272c-66 0 -126 25 -167 86h-2v-72h-138z" />
    <glyph glyph-name="c" unicode="c" 
d="M525 323l-150 -6c-3 72 -45 89 -83 89c-89 0 -100 -94 -100 -160c0 -68 24 -144 99 -144c55 0 83 34 91 84l141 -5c-22 -113 -90 -195 -228 -195c-168 0 -253 108 -253 266c0 165 94 276 250 276c153 0 226 -96 233 -205z" />
    <glyph glyph-name="d" unicode="d" horiz-adv-x="667" 
d="M450 256c0 77 -42 150 -132 150c-83 0 -126 -74 -126 -152c0 -81 45 -152 130 -152c82 0 128 68 128 154zM451 0v72h-2c-41 -61 -101 -86 -167 -86c-143 0 -240 129 -240 272s90 270 238 270c66 0 115 -21 163 -84h2v308h144v-752h-138z" />
    <glyph glyph-name="e" unicode="e" horiz-adv-x="610" 
d="M568 216h-376c6 -60 43 -120 120 -120c44 0 83 21 103 61l140 -11c-35 -105 -129 -160 -250 -160c-155 0 -263 106 -263 270c0 166 108 272 263 272s263 -106 263 -272v-40zM192 308h232c-5 50 -43 110 -112 110c-75 0 -112 -52 -120 -110z" />
    <glyph glyph-name="f" unicode="f" horiz-adv-x="333" 
d="M84 0v404h-73v110h73v67c0 144 72 177 199 177h28v-122h-40c-25 0 -43 -13 -43 -42v-80h83v-110h-83v-404h-144z" />
    <glyph glyph-name="g" unicode="g" horiz-adv-x="667" 
d="M451 433v81h138v-506c0 -155 -112 -242 -276 -242c-148 0 -231 67 -250 175h148c12 -39 37 -65 106 -65c50 0 124 21 129 124l4 88l-2 2c-33 -71 -93 -95 -166 -95c-129 0 -240 101 -240 268c0 144 100 265 246 265c78 0 136 -40 161 -95h2zM449 258
c0 94 -47 148 -132 148c-77 0 -125 -64 -125 -143c0 -124 85 -152 130 -152c38 0 127 18 127 147z" />
    <glyph glyph-name="h" unicode="h" horiz-adv-x="610" 
d="M397 0v313c0 74 -45 99 -90 99c-58 0 -94 -50 -94 -120v-292h-144v752h144v-305h2c40 62 90 81 146 81c124 0 180 -80 180 -179v-349h-144z" />
    <glyph glyph-name="i" unicode="i" horiz-adv-x="278" 
d="M67 0v514h144v-514h-144zM55 673c0 42 36 85 84 85c43 0 84 -37 84 -83c0 -44 -38 -85 -84 -85c-48 0 -84 43 -84 83z" />
    <glyph glyph-name="j" unicode="j" horiz-adv-x="278" 
d="M-17 -232v120h38c22 0 46 13 46 66v560h144v-566c0 -158 -108 -182 -181 -182c-15 0 -31 2 -47 2zM55 673c0 42 36 85 84 85c43 0 84 -37 84 -83c0 -44 -38 -85 -84 -85c-48 0 -84 43 -84 83z" />
    <glyph glyph-name="k" unicode="k" 
d="M367 0l-152 252h-2v-252h-144v752h144v-463h2l155 225h167l-172 -232l179 -282h-177z" />
    <glyph glyph-name="l" unicode="l" horiz-adv-x="278" 
d="M67 0v752h144v-752h-144z" />
    <glyph glyph-name="m" unicode="m" horiz-adv-x="888" 
d="M675 0v331c0 40 -22 81 -77 81s-82 -51 -82 -92v-320h-144v317c0 54 -18 95 -78 95c-59 0 -81 -50 -81 -100v-312h-144v514h138v-67h2c46 68 96 81 155 81c34 0 102 -9 138 -80c51 68 108 80 151 80c88 0 166 -51 166 -159v-369h-144z" />
    <glyph glyph-name="n" unicode="n" horiz-adv-x="610" 
d="M397 0v313c0 74 -45 99 -90 99c-58 0 -94 -50 -94 -120v-292h-144v514h138v-67h2c43 62 94 81 152 81c124 0 180 -80 180 -179v-349h-144z" />
    <glyph glyph-name="o" unicode="o" horiz-adv-x="610" 
d="M568 257c0 -165 -108 -271 -263 -271s-263 106 -263 271s108 271 263 271s263 -106 263 -271zM418 257c0 89 -37 155 -113 155s-113 -66 -113 -155s37 -155 113 -155s113 66 113 155z" />
    <glyph glyph-name="p" unicode="p" horiz-adv-x="667" 
d="M475 260c0 81 -45 152 -130 152c-82 0 -128 -68 -128 -154c0 -77 42 -150 132 -150c83 0 126 74 126 152zM78 -224v738h138v-72h2c41 61 101 86 167 86c143 0 240 -129 240 -272s-90 -270 -238 -270c-66 0 -115 21 -163 84h-2v-294h-144z" />
    <glyph glyph-name="q" unicode="q" horiz-adv-x="667" 
d="M450 258c0 86 -46 154 -128 154c-85 0 -130 -71 -130 -152c0 -78 43 -152 126 -152c90 0 132 73 132 150zM445 -224v294h-2c-48 -63 -97 -84 -163 -84c-148 0 -238 127 -238 270s97 272 240 272c66 0 126 -25 167 -86h2v72h138v-738h-144z" />
    <glyph glyph-name="r" unicode="r" horiz-adv-x="389" 
d="M69 0v514h138v-99h2c27 73 80 113 148 113h20v-140h-32c-74 0 -132 -45 -132 -136v-252h-144z" />
    <glyph glyph-name="s" unicode="s" 
d="M497 358l-144 -3c-2 43 -33 69 -88 69c-38 0 -76 -15 -76 -46c0 -92 320 -12 320 -220c0 -40 -22 -172 -234 -172c-72 0 -216 22 -228 174h144c2 -50 46 -70 89 -70c37 0 85 11 85 53c0 86 -308 8 -308 220c0 79 61 165 213 165c132 0 219 -58 227 -170z" />
    <glyph glyph-name="t" unicode="t" horiz-adv-x="333" 
d="M18 404v110h66v148h144v-148h76v-110h-76v-260c0 -23 10 -34 47 -34c12 0 20 1 29 3v-113c-23 -3 -46 -6 -69 -6c-94 0 -151 23 -151 134v276h-66z" />
    <glyph glyph-name="u" unicode="u" horiz-adv-x="610" 
d="M403 0v67h-2c-43 -62 -94 -81 -152 -81c-124 0 -180 80 -180 179v349h144v-313c0 -74 45 -99 90 -99c58 0 94 50 94 120v292h144v-514h-138z" />
    <glyph glyph-name="v" unicode="v" 
d="M203 0l-193 514h158l109 -340h2l109 340h158l-193 -514h-150z" />
    <glyph glyph-name="w" unicode="w" horiz-adv-x="832" 
d="M507 0l-90 341h-2l-90 -341h-151l-164 514h153l85 -350h2l91 350h150l91 -350h2l85 350h153l-164 -514h-151z" />
    <glyph glyph-name="x" unicode="x" 
d="M364 0l-91 147l-87 -147h-176l180 257l-176 257h181l82 -142l87 142h177l-180 -252l185 -262h-182z" />
    <glyph glyph-name="y" unicode="y" 
d="M117 -224l86 224l-193 514h158l109 -340h2l109 340h158l-278 -738h-151z" />
    <glyph glyph-name="z" unicode="z" horiz-adv-x="500" 
d="M33 0v104l251 294h-237v116h420v-104l-248 -294h248v-116h-434z" />
    <glyph glyph-name="braceleft" unicode="{" horiz-adv-x="333" 
d="M100 421v226c0 91 78 135 134 135h89v-92h-43c-48 0 -54 -34 -54 -79v-204c0 -84 -69 -107 -111 -111v-2c42 -4 111 -27 111 -111v-204c0 -45 6 -79 54 -79h43v-92h-89c-56 0 -134 44 -134 135v226c0 61 -49 80 -81 80v92c32 0 81 19 81 80z" />
    <glyph glyph-name="bar" unicode="|" horiz-adv-x="222" 
d="M59 -14v780h104v-780h-104z" />
    <glyph glyph-name="braceright" unicode="}" horiz-adv-x="333" 
d="M233 169v-226c0 -91 -78 -135 -134 -135h-89v92h43c48 0 54 34 54 79v204c0 84 69 107 111 111v2c-42 4 -111 27 -111 111v204c0 45 -6 79 -54 79h-43v92h89c56 0 134 -44 134 -135v-226c0 -61 49 -80 81 -80v-92c-32 0 -81 -19 -81 -80z" />
    <glyph glyph-name="asciitilde" unicode="~" horiz-adv-x="600" 
d="M495 340l36 -83c-30 -42 -63 -86 -125 -86c-46 0 -71 17 -104 34s-61 34 -113 34c-44 0 -68 -37 -84 -73l-36 83c22 42 58 88 125 88c47 0 75 -17 113 -35c38 -17 62 -35 100 -35c40 0 65 37 88 73z" />
    <glyph glyph-name="exclamdown" unicode="&#xa1;" horiz-adv-x="332" 
d="M94 -210v516h144v-516h-144zM82 470c0 46 38 84 84 84s84 -38 84 -84s-38 -84 -84 -84s-84 38 -84 84z" />
    <glyph glyph-name="cent" unicode="&#xa2;" 
d="M259 106v300c-63 -19 -72 -102 -72 -160c0 -59 18 -123 72 -140zM259 -110v98c-148 13 -222 117 -222 264c0 155 83 264 222 276v95h54v-95c136 -10 200 -103 206 -205l-150 -6c-2 55 -27 81 -56 89v-300c37 8 57 39 63 80l141 -5c-20 -107 -81 -186 -204 -193v-98h-54z
" />
    <glyph glyph-name="sterling" unicode="&#xa3;" 
d="M31 338v62h71c-8 10 -44 78 -44 148c0 96 65 204 220 204c156 0 220 -79 239 -210h-147c-1 50 -28 88 -84 88c-72 0 -84 -52 -84 -86c0 -44 28 -96 52 -144h152v-62h-133c4 -18 6 -30 6 -55c0 -51 -17 -96 -90 -161l2 -2c37 9 44 11 61 11c34 0 110 -21 132 -21
c33 0 64 4 108 40l34 -121c-53 -30 -95 -41 -131 -41c-67 0 -131 39 -193 39c-21 0 -70 -5 -121 -39l-51 108c60 32 117 73 117 152c0 38 -10 68 -17 90h-99z" />
    <glyph glyph-name="fraction" unicode="&#x2044;" horiz-adv-x="167" 
d="M-171 -12l427 764h82l-423 -764h-86z" />
    <glyph glyph-name="yen" unicode="&#xa5;" 
d="M72 155v86h143v57l-5 12h-138v86h99l-156 344h153l110 -284l119 284h144l-156 -344h99v-86h-138l-5 -12v-57h143v-86h-143v-155h-126v155h-143z" />
    <glyph glyph-name="florin" unicode="&#x192;" 
d="M118 300l9 110h81l12 118c11 105 28 224 178 224c30 0 43 -2 61 -5l-10 -118c-14 5 -19 7 -33 7c-45 0 -54 -49 -57 -78l-14 -148h87l-10 -110h-82l-27 -328c-11 -130 -45 -206 -184 -206c-20 0 -38 3 -53 6l10 114c10 -1 22 -4 35 -4c41 0 51 57 54 92l26 326h-83z" />
    <glyph glyph-name="section" unicode="&#xa7;" 
d="M65 -36h138c3 -22 10 -40 21 -52c12 -13 29 -20 49 -20c40 0 73 19 73 68c0 145 -305 59 -305 310c0 80 40 142 110 171c-53 32 -76 73 -76 138c0 55 32 187 207 187c145 0 200 -89 206 -191h-138c-1 26 -8 44 -21 57c-12 12 -29 18 -51 18c-35 0 -65 -24 -65 -62
c0 -128 302 -61 302 -303c0 -62 -23 -129 -107 -170c57 -31 76 -84 76 -145c0 -101 -67 -194 -213 -194c-124 0 -194 59 -206 188zM371 272c0 68 -33 102 -97 102c-45 0 -89 -31 -89 -97c0 -70 38 -98 95 -98c62 0 91 45 91 93z" />
    <glyph glyph-name="currency" unicode="&#xa4;" 
d="M21 169l57 58c-33 33 -48 89 -48 143s15 110 48 143l-57 58l57 56l57 -55c33 28 90 46 143 46s110 -18 143 -46l57 55l57 -56l-57 -58c33 -33 48 -89 48 -143s-15 -110 -48 -143l57 -58l-57 -56l-57 55c-33 -28 -90 -46 -143 -46s-110 18 -143 46l-57 -55zM134 370
c0 -80 64 -144 144 -144s144 64 144 144s-64 144 -144 144s-144 -64 -144 -144z" />
    <glyph glyph-name="quotesingle" unicode="'" horiz-adv-x="222" 
d="M59 474v278h104v-278h-104z" />
    <glyph glyph-name="quotedblleft" unicode="&#x201c;" 
d="M169 766l94 -28l-74 -278l-134 42zM407 766l94 -28l-74 -278l-134 42z" />
    <glyph glyph-name="guillemotleft" unicode="&#xab;" 
d="M273 262l108 182h110l-110 -182l105 -182h-110zM65 262l108 182h110l-110 -182l105 -182h-110z" />
    <glyph glyph-name="guilsinglleft" unicode="&#x2039;" horiz-adv-x="278" 
d="M30 262l108 182h110l-110 -182l105 -182h-110z" />
    <glyph glyph-name="guilsinglright" unicode="&#x203a;" horiz-adv-x="278" 
d="M140 444l108 -182l-103 -182h-110l105 182l-110 182h110z" />
    <glyph glyph-name="endash" unicode="&#x2013;" horiz-adv-x="500" 
d="M0 207v110h500v-110h-500z" />
    <glyph glyph-name="dagger" unicode="&#x2020;" 
d="M209 -121v516h-166v122h166v235h138v-235h166v-122h-166v-516h-138z" />
    <glyph glyph-name="daggerdbl" unicode="&#x2021;" 
d="M209 200v231h-166v122h166v199h138v-199h166v-122h-166v-231h166v-122h-166v-199h-138v199h-166v122h166z" />
    <glyph glyph-name="periodcentered" unicode="&#xb7;" horiz-adv-x="278" 
d="M55 296c0 46 38 84 84 84s84 -38 84 -84s-38 -84 -84 -84s-84 38 -84 84z" />
    <glyph glyph-name="paragraph" unicode="&#xb6;" horiz-adv-x="620" 
d="M435 -210v876h-106v-876h-104v580c-139 0 -219 69 -219 188c0 152 101 194 240 194h293v-962h-104z" />
    <glyph glyph-name="bullet" unicode="&#x2022;" horiz-adv-x="500" 
d="M62 376c0 104 84 188 188 188s188 -84 188 -188s-84 -188 -188 -188s-188 84 -188 188z" />
    <glyph glyph-name="quotesinglbase" unicode="&#x201a;" horiz-adv-x="278" 
d="M109 153l134 -42l-115 -264l-93 28z" />
    <glyph glyph-name="quotedblbase" unicode="&#x201e;" 
d="M367 153l134 -42l-115 -264l-93 28zM129 153l134 -42l-115 -264l-93 28z" />
    <glyph glyph-name="quotedblright" unicode="&#x201d;" 
d="M367 766l134 -42l-115 -264l-93 28zM129 766l134 -42l-115 -264l-93 28z" />
    <glyph glyph-name="guillemotright" unicode="&#xbb;" 
d="M175 444l108 -182l-103 -182h-110l105 182l-110 182h110zM383 444l108 -182l-103 -182h-110l105 182l-110 182h110z" />
    <glyph glyph-name="ellipsis" unicode="&#x2026;" horiz-adv-x="1000" 
d="M83 72c0 46 38 84 84 84s84 -38 84 -84s-38 -84 -84 -84s-84 38 -84 84zM416 72c0 46 38 84 84 84s84 -38 84 -84s-38 -84 -84 -84s-84 38 -84 84zM749 72c0 46 38 84 84 84s84 -38 84 -84s-38 -84 -84 -84s-84 38 -84 84z" />
    <glyph glyph-name="perthousand" unicode="&#x2030;" horiz-adv-x="1000" 
d="M150 394c-94 0 -140 69 -140 179s46 179 140 179s140 -69 140 -179s-46 -179 -140 -179zM150 468c38 0 44 31 44 105c0 68 -6 105 -44 105s-44 -37 -44 -105c0 -74 6 -105 44 -105zM850 62c38 0 44 31 44 105c0 68 -6 105 -44 105s-44 -37 -44 -105c0 -74 6 -105 44 -105
zM850 -12c-94 0 -140 69 -140 179s46 179 140 179s140 -69 140 -179s-46 -179 -140 -179zM511 62c38 0 44 31 44 105c0 68 -6 105 -44 105s-44 -37 -44 -105c0 -74 6 -105 44 -105zM511 -12c-94 0 -140 69 -140 179s46 179 140 179s140 -69 140 -179s-46 -179 -140 -179z
M73 -21l435 782h82l-431 -782h-86z" />
    <glyph glyph-name="questiondown" unicode="&#xbf;" 
d="M231 306h138v-31c0 -160 -172 -178 -172 -298c0 -54 39 -79 82 -79c58 0 86 37 86 93v12h138c0 -141 -88 -227 -228 -227c-113 0 -222 62 -222 200c0 172 178 190 178 309v21zM294 554c46 0 84 -38 84 -84s-38 -84 -84 -84s-84 38 -84 84s38 84 84 84z" />
    <glyph glyph-name="grave" unicode="`" horiz-adv-x="278" 
d="M164 602l-140 140h135l88 -140h-83z" />
    <glyph glyph-name="acute" unicode="&#xb4;" horiz-adv-x="278" 
d="M31 602l88 140h135l-140 -140h-83z" />
    <glyph glyph-name="circumflex" unicode="&#x2c6;" horiz-adv-x="278" 
d="M209 596l-70 90l-70 -90h-92l107 146h110l107 -146h-92z" />
    <glyph glyph-name="tilde" unicode="&#x2dc;" horiz-adv-x="278" 
d="M20 603h-57c7 54 37 117 109 117c26 0 52 -9 75 -18c24 -9 45 -19 63 -19c27 0 43 16 48 42h57c-7 -53 -37 -116 -108 -116c-26 0 -52 9 -75 18c-24 9 -45 19 -63 19c-28 0 -44 -16 -49 -43z" />
    <glyph glyph-name="macron" unicode="&#xaf;" horiz-adv-x="278" 
d="M-6 625v66h290v-66h-290z" />
    <glyph glyph-name="breve" unicode="&#x2d8;" horiz-adv-x="278" 
d="M244 740h56c-5 -85 -69 -141 -161 -141c-91 0 -156 56 -161 141h57c10 -50 47 -75 104 -75s94 25 105 75z" />
    <glyph glyph-name="dotaccent" unicode="&#x2d9;" horiz-adv-x="278" 
d="M64 677c0 41 34 75 75 75s75 -34 75 -75s-34 -75 -75 -75s-75 34 -75 75z" />
    <glyph glyph-name="dieresis" unicode="&#xa8;" horiz-adv-x="278" 
d="M32 752c41 0 75 -34 75 -75s-34 -75 -75 -75s-75 34 -75 75s34 75 75 75zM246 752c41 0 75 -34 75 -75s-34 -75 -75 -75s-75 34 -75 75s34 75 75 75z" />
    <glyph glyph-name="ring" unicode="&#x2da;" horiz-adv-x="278" 
d="M36 685c0 55 46 103 103 103c55 0 103 -47 103 -103c0 -55 -48 -103 -103 -103c-57 0 -103 49 -103 103zM90 685c0 -27 22 -49 49 -49s49 22 49 49s-22 49 -49 49s-49 -22 -49 -49z" />
    <glyph glyph-name="cedilla" unicode="&#xb8;" horiz-adv-x="278" 
d="M80 -107l-22 19l66 94h68l-38 -52l2 -2c8 1 16 2 27 2c45 0 79 -34 79 -87c0 -61 -49 -101 -122 -101c-56 0 -101 16 -119 26l19 53c28 -12 49 -18 71 -18c21 0 55 4 55 38c0 17 -12 37 -46 37c-19 0 -31 -3 -40 -9z" />
    <glyph glyph-name="hungarumlaut" unicode="&#x2dd;" horiz-adv-x="278" 
d="M-74 602l88 140h135l-140 -140h-83zM136 602l88 140h135l-140 -140h-83z" />
    <glyph glyph-name="ogonek" unicode="&#x2db;" horiz-adv-x="278" 
d="M143 0h48c-44 -44 -71 -81 -71 -107c0 -29 21 -43 44 -43c17 0 30 2 42 5l8 -53c-20 -7 -43 -12 -68 -12c-50 0 -112 25 -112 88c0 45 46 81 109 122z" />
    <glyph glyph-name="caron" unicode="&#x2c7;" horiz-adv-x="278" 
d="M139 652l70 90h92l-107 -146h-110l-107 146h92z" />
    <glyph glyph-name="emdash" unicode="&#x2014;" horiz-adv-x="1000" 
d="M0 207v110h1000v-110h-1000z" />
    <glyph glyph-name="AE" unicode="&#xc6;" horiz-adv-x="944" 
d="M465 0v161h-219l-72 -161h-164l344 752h542v-134h-281v-171h271v-134h-271v-179h281v-134h-431zM465 289v347h-11l-148 -347h159z" />
    <glyph glyph-name="ordfeminine" unicode="&#xaa;" horiz-adv-x="396" 
d="M241 567v13l-60 -5c-43 -4 -50 -20 -50 -27c0 -25 27 -33 43 -33c19 0 67 15 67 52zM247 449v40h-2c-18 -38 -62 -48 -101 -48c-53 0 -117 24 -117 101c0 65 61 88 113 92l101 7v9c0 24 -22 42 -55 42c-29 0 -51 -18 -53 -40h-96c3 43 23 71 52 89s67 25 105 25
c82 0 151 -29 151 -100v-179c0 -16 2 -27 5 -38h-103z" />
    <glyph glyph-name="Lslash" unicode="&#x141;" 
d="M-2 210v115l85 50v377h150v-289l203 119v-115l-203 -119v-208h289v-140h-439v260z" />
    <glyph glyph-name="Oslash" unicode="&#xd8;" horiz-adv-x="832" 
d="M595 519l-320 -340c34 -37 81 -59 141 -59c140 0 210 121 210 256c0 52 -11 103 -31 143zM238 234l319 339c-34 37 -81 59 -141 59c-140 0 -210 -121 -210 -256c0 -52 11 -102 32 -142zM33 17l99 105c-54 69 -82 160 -82 254c0 202 132 390 366 390c98 0 179 -33 239 -88
l97 102l47 -45l-99 -105c54 -69 82 -160 82 -254c0 -202 -132 -390 -366 -390c-99 0 -180 34 -239 89l-97 -103z" />
    <glyph glyph-name="OE" unicode="&#x152;" horiz-adv-x="1000" 
d="M557 375c0 82 -21 257 -180 257c-121 0 -183 -110 -183 -258c0 -157 72 -254 182 -254c121 0 181 114 181 255zM557 0v87h-2c-58 -90 -151 -101 -198 -101c-119 0 -313 76 -313 402c0 230 146 378 306 378c111 0 175 -41 206 -95h2v81h394v-134h-251v-171h242v-134h-242
v-179h251v-134h-395z" />
    <glyph glyph-name="ordmasculine" unicode="&#xba;" horiz-adv-x="396" 
d="M27 603c0 99 71 163 171 163c101 0 171 -64 171 -163s-70 -162 -171 -162c-100 0 -171 63 -171 162zM259 604c0 58 -28 82 -61 82c-32 0 -61 -24 -61 -82s29 -83 61 -83c33 0 61 25 61 83z" />
    <glyph glyph-name="ae" unicode="&#xe6;" horiz-adv-x="944" 
d="M193 348h-132c5 79 61 180 241 180c54 0 130 -16 181 -64c38 38 98 64 153 64c155 0 263 -106 263 -272v-40h-376c6 -60 43 -120 120 -120c44 0 83 21 103 61l140 -11c-35 -105 -129 -160 -250 -160c-98 0 -150 35 -203 93c-63 -68 -108 -92 -208 -93
c-81 0 -180 40 -180 157c0 51 18 165 263 165h77v25c0 61 -32 91 -89 91c-65 0 -100 -30 -103 -76zM385 177v39h-69c-114 0 -127 -30 -127 -66c0 -46 42 -60 84 -60c39 0 112 25 112 87zM523 308h232c-5 50 -43 110 -112 110c-75 0 -112 -52 -120 -110z" />
    <glyph glyph-name="dotlessi" unicode="&#x131;" horiz-adv-x="278" 
d="M67 0v514h144v-514h-144z" />
    <glyph glyph-name="lslash" unicode="&#x142;" horiz-adv-x="278" 
d="M-6 262v102l73 45v343h144v-254l73 45v-102l-73 -45v-396h-144v307z" />
    <glyph glyph-name="oslash" unicode="&#xf8;" horiz-adv-x="610" 
d="M409 328l-182 -193c19 -19 44 -33 78 -33c76 0 113 66 113 155c0 26 -2 49 -9 71zM201 186l180 193c-15 17 -40 33 -76 33c-76 0 -113 -66 -113 -155c0 -27 3 -51 9 -71zM30 4l69 74c-36 46 -57 107 -57 179c0 165 108 271 263 271c66 0 124 -20 167 -54l69 73l39 -37
l-69 -74c36 -46 57 -107 57 -179c0 -165 -108 -271 -263 -271c-65 0 -123 19 -167 54l-69 -73z" />
    <glyph glyph-name="oe" unicode="&#x153;" horiz-adv-x="944" 
d="M411 265c0 90 -48 141 -110 141c-69 0 -113 -61 -113 -150c0 -93 42 -148 113 -148c85 0 110 88 110 157zM543 306h213c0 86 -56 112 -105 112c-64 0 -100 -45 -108 -112zM906 220h-362c0 -69 31 -124 104 -124c44 0 80 18 104 61l140 -11c-42 -131 -168 -160 -250 -160
c-71 0 -134 26 -173 81c-30 -37 -77 -81 -177 -81c-146 0 -254 106 -254 270c0 166 108 272 263 272c66 0 130 -18 176 -79c45 58 111 79 183 79c154 0 246 -107 246 -278v-30z" />
    <glyph glyph-name="germandbls" unicode="&#xdf;" horiz-adv-x="610" 
d="M283 337v116c41 0 102 0 102 96c0 71 -49 87 -87 87c-56 0 -85 -33 -85 -107v-529h-144v535c0 126 80 223 235 223c114 0 224 -63 225 -191c0 -70 -34 -122 -90 -157v-2c57 -6 129 -56 129 -178c0 -132 -92 -236 -230 -236c-31 0 -50 3 -68 6v124c12 -1 20 -2 34 -2
c86 0 114 44 114 105c0 109 -91 110 -135 110z" />
    <glyph glyph-name="onesuperior" unicode="&#xb9;" horiz-adv-x="361" 
d="M141 300v332c-18 -15 -54 -36 -100 -54v87c31 15 91 45 130 87h74v-452h-104z" />
    <glyph glyph-name="logicalnot" unicode="&#xac;" horiz-adv-x="600" 
d="M449 108v202h-402v104h506v-306h-104z" />
    <glyph glyph-name="mu" unicode="&#xb5;" horiz-adv-x="610" 
d="M403 0v67h-2c-43 -62 -79 -81 -119 -81c-30 0 -55 11 -67 32h-2v-242h-144v738h144v-313c0 -74 45 -99 90 -99c58 0 94 50 94 120v292h144v-514h-138z" />
    <glyph glyph-name="trademark" unicode="&#x2122;" horiz-adv-x="1000" 
d="M823 340v292h-2l-106 -292h-75l-106 292h-2v-292h-96v412h143l99 -260l98 260h143v-412h-96zM133 340v332h-117v80h338v-80h-117v-332h-104z" />
    <glyph glyph-name="Eth" unicode="&#xd0;" horiz-adv-x="778" 
d="M5 350v92h78v310h283c228 0 362 -134 362 -376c0 -240 -166 -376 -358 -376h-287v350h-78zM430 442v-92h-197v-222h127c154 0 212 132 212 249c0 126 -54 247 -224 247h-115v-182h197z" />
    <glyph glyph-name="onehalf" unicode="&#xbd;" horiz-adv-x="834" 
d="M135 -12l427 764h82l-423 -764h-86zM145 300v332c-18 -15 -54 -36 -100 -54v87c31 15 91 45 130 87h74v-452h-104zM468 0v68l132 134c75 76 79 83 79 121c0 25 -16 43 -51 43s-57 -22 -57 -71h-96c0 129 97 157 155 157c90 0 153 -55 153 -128c0 -57 -26 -94 -107 -169
l-75 -69h188v-86h-321z" />
    <glyph glyph-name="plusminus" unicode="&#xb1;" horiz-adv-x="600" 
d="M248 374v132h104v-132h201v-104h-201v-133h-104v133h-201v104h201zM47 0v104h506v-104h-506z" />
    <glyph glyph-name="Thorn" unicode="&#xde;" horiz-adv-x="611" 
d="M233 274h84c99 0 122 60 122 110c0 51 -35 111 -121 111h-85v-221zM83 0v752h150v-129h95c118 0 261 -54 261 -239c0 -173 -129 -238 -249 -238h-107v-146h-150z" />
    <glyph glyph-name="onequarter" unicode="&#xbc;" horiz-adv-x="834" 
d="M659 180v160h-2l-102 -160h104zM476 106v79l173 259h106v-264h55v-74h-55v-106h-96v106h-183zM143 -12l427 764h82l-423 -764h-86zM145 300v332c-18 -15 -54 -36 -100 -54v87c31 15 91 45 130 87h74v-452h-104z" />
    <glyph glyph-name="divide" unicode="&#xf7;" horiz-adv-x="600" 
d="M47 201v104h506v-104h-506zM216 460c0 46 38 84 84 84s84 -38 84 -84s-38 -84 -84 -84s-84 38 -84 84zM216 46c0 46 38 84 84 84s84 -38 84 -84s-38 -84 -84 -84s-84 38 -84 84z" />
    <glyph glyph-name="brokenbar" unicode="&#xa6;" horiz-adv-x="222" 
d="M59 -14v292h104v-292h-104zM59 474v292h104v-292h-104z" />
    <glyph glyph-name="degree" unicode="&#xb0;" horiz-adv-x="400" 
d="M57 609c0 80 63 143 143 143s143 -63 143 -143s-63 -143 -143 -143s-143 63 -143 143zM123 609c0 -43 34 -77 77 -77s77 34 77 77s-34 77 -77 77s-77 -34 -77 -77z" />
    <glyph glyph-name="thorn" unicode="&#xfe;" horiz-adv-x="667" 
d="M475 260c0 81 -45 152 -130 152c-82 0 -128 -68 -128 -154c0 -77 42 -150 132 -150c83 0 126 74 126 152zM78 -224v976h144v-303h2c33 52 95 79 161 79c143 0 240 -129 240 -272s-90 -270 -238 -270c-66 0 -115 21 -163 84h-2v-294h-144z" />
    <glyph glyph-name="threequarters" unicode="&#xbe;" horiz-adv-x="834" 
d="M659 180v160h-2l-102 -160h104zM476 106v79l173 259h106v-264h55v-74h-55v-106h-96v106h-183zM186 -12l427 764h82l-423 -764h-86zM118 494v82l92 90h-169v86h285v-79l-101 -99c80 0 130 -54 130 -127c0 -86 -70 -147 -174 -147c-60 0 -150 26 -157 130l104 8
c3 -49 42 -52 56 -52c35 0 61 30 61 63c0 37 -24 59 -67 59c-24 0 -47 -9 -60 -14z" />
    <glyph glyph-name="twosuperior" unicode="&#xb2;" horiz-adv-x="361" 
d="M20 300v68l132 134c75 76 79 83 79 121c0 25 -16 43 -51 43s-57 -22 -57 -71h-96c0 129 97 157 155 157c90 0 153 -55 153 -128c0 -57 -26 -94 -107 -169l-75 -69h188v-86h-321z" />
    <glyph glyph-name="registered" unicode="&#xae;" horiz-adv-x="800" 
d="M10 376c0 215 175 390 390 390s390 -175 390 -390s-175 -390 -390 -390s-390 175 -390 390zM686 376c0 178 -131 304 -286 304c-158 0 -286 -126 -286 -304c0 -179 128 -304 286 -304c155 0 286 125 286 304zM484 161l-103 183h-51v-183h-86v431h163
c110 0 172 -32 172 -129c0 -79 -47 -109 -114 -115l114 -187h-95zM330 410h87c44 0 76 9 76 61c0 49 -49 55 -86 55h-77v-116z" />
    <glyph glyph-name="minus" unicode="&#x2212;" horiz-adv-x="600" 
d="M47 201v104h506v-104h-506z" />
    <glyph glyph-name="eth" unicode="&#xf0;" horiz-adv-x="610" 
d="M159 582l-56 51l120 53c-31 24 -60 43 -96 63l118 57c31 -22 59 -43 91 -70l125 55l50 -53l-117 -52c117 -110 174 -226 174 -389c0 -168 -70 -311 -263 -311c-155 0 -263 106 -263 270c0 166 104 272 242 272c44 0 77 -10 111 -34h2c-22 44 -64 100 -115 142zM418 256
c0 90 -44 156 -112 156c-70 0 -114 -66 -114 -156c0 -88 44 -154 114 -154c68 0 112 66 112 154z" />
    <glyph glyph-name="multiply" unicode="&#xd7;" horiz-adv-x="600" 
d="M228 253l-162 162l72 72l162 -162l162 162l72 -72l-163 -162l163 -162l-72 -72l-162 163l-162 -163l-72 72z" />
    <glyph glyph-name="threesuperior" unicode="&#xb3;" horiz-adv-x="361" 
d="M109 494v82l92 90h-169v86h285v-79l-101 -99c80 0 130 -54 130 -127c0 -86 -70 -147 -174 -147c-60 0 -150 26 -157 130l104 8c3 -49 42 -52 56 -52c35 0 61 30 61 63c0 37 -24 59 -67 59c-24 0 -47 -9 -60 -14z" />
    <glyph glyph-name="copyright" unicode="&#xa9;" horiz-adv-x="800" 
d="M686 376c0 178 -131 304 -286 304c-158 0 -286 -126 -286 -304c0 -179 128 -304 286 -304c155 0 286 125 286 304zM508 313h96c-16 -105 -96 -163 -189 -163c-134 0 -220 100 -220 229c0 132 82 229 218 229c96 0 172 -55 187 -161h-92c-10 51 -52 75 -101 75
c-74 0 -114 -58 -114 -142c0 -80 46 -144 116 -144c54 0 94 27 99 77zM10 376c0 215 175 390 390 390s390 -175 390 -390s-175 -390 -390 -390s-390 175 -390 390z" />
    <glyph glyph-name="Aacute" unicode="&#xc1;" horiz-adv-x="722" 
d="M456 279l-96 292h-2l-95 -292h193zM547 0l-51 157h-275l-49 -157h-162l274 752h158l270 -752h-165zM288 795l88 140h135l-140 -140h-83z" />
    <glyph glyph-name="Acircumflex" unicode="&#xc2;" horiz-adv-x="722" 
d="M456 279l-96 292h-2l-95 -292h193zM547 0l-51 157h-275l-49 -157h-162l274 752h158l270 -752h-165zM431 789l-70 90l-70 -90h-92l107 146h110l107 -146h-92z" />
    <glyph glyph-name="Adieresis" unicode="&#xc4;" horiz-adv-x="722" 
d="M456 279l-96 292h-2l-95 -292h193zM547 0l-51 157h-275l-49 -157h-162l274 752h158l270 -752h-165zM254 945c41 0 75 -34 75 -75s-34 -75 -75 -75s-75 34 -75 75s34 75 75 75zM468 945c41 0 75 -34 75 -75s-34 -75 -75 -75s-75 34 -75 75s34 75 75 75z" />
    <glyph glyph-name="Agrave" unicode="&#xc0;" horiz-adv-x="722" 
d="M456 279l-96 292h-2l-95 -292h193zM547 0l-51 157h-275l-49 -157h-162l274 752h158l270 -752h-165zM356 795l-140 140h135l88 -140h-83z" />
    <glyph glyph-name="Aring" unicode="&#xc5;" horiz-adv-x="722" 
d="M456 279l-96 292h-2l-95 -292h193zM547 0l-51 157h-275l-49 -157h-162l274 752h158l270 -752h-165zM258 878c0 55 46 103 103 103c55 0 103 -47 103 -103c0 -55 -48 -103 -103 -103c-57 0 -103 49 -103 103zM312 878c0 -27 22 -49 49 -49s49 22 49 49s-22 49 -49 49
s-49 -22 -49 -49z" />
    <glyph glyph-name="Atilde" unicode="&#xc3;" horiz-adv-x="722" 
d="M456 279l-96 292h-2l-95 -292h193zM547 0l-51 157h-275l-49 -157h-162l274 752h158l270 -752h-165zM242 796h-57c7 54 37 117 109 117c26 0 52 -9 75 -18c24 -9 45 -19 63 -19c27 0 43 16 48 42h57c-7 -53 -37 -116 -108 -116c-26 0 -52 9 -75 18c-24 9 -45 19 -63 19
c-28 0 -44 -16 -49 -43z" />
    <glyph glyph-name="Ccedilla" unicode="&#xc7;" horiz-adv-x="778" 
d="M727 495l-151 -10c-22 97 -88 147 -174 147c-122 0 -196 -117 -196 -257c0 -159 78 -255 200 -255c72 0 142 48 168 133l154 -11c-49 -158 -159 -245 -300 -255l-24 -33l2 -2c8 1 16 2 27 2c45 0 79 -34 79 -87c0 -61 -49 -101 -122 -101c-56 0 -101 16 -119 26l19 53
c28 -12 49 -18 71 -18c21 0 55 4 55 38c0 17 -12 37 -46 37c-19 0 -31 -3 -40 -9l-22 19l53 75c-183 17 -311 153 -311 389c0 227 143 390 350 390c158 0 288 -78 327 -271z" />
    <glyph glyph-name="Eacute" unicode="&#xc9;" horiz-adv-x="611" 
d="M83 0v752h480v-134h-330v-171h321v-134h-321v-179h330v-134h-480zM253 795l88 140h135l-140 -140h-83z" />
    <glyph glyph-name="Ecircumflex" unicode="&#xca;" horiz-adv-x="611" 
d="M83 0v752h480v-134h-330v-171h321v-134h-321v-179h330v-134h-480zM376 789l-70 90l-70 -90h-92l107 146h110l107 -146h-92z" />
    <glyph glyph-name="Edieresis" unicode="&#xcb;" horiz-adv-x="611" 
d="M83 0v752h480v-134h-330v-171h321v-134h-321v-179h330v-134h-480zM199 945c41 0 75 -34 75 -75s-34 -75 -75 -75s-75 34 -75 75s34 75 75 75zM413 945c41 0 75 -34 75 -75s-34 -75 -75 -75s-75 34 -75 75s34 75 75 75z" />
    <glyph glyph-name="Egrave" unicode="&#xc8;" horiz-adv-x="611" 
d="M83 0v752h480v-134h-330v-171h321v-134h-321v-179h330v-134h-480zM321 795l-140 140h135l88 -140h-83z" />
    <glyph glyph-name="Iacute" unicode="&#xcd;" horiz-adv-x="332" 
d="M91 0v752h150v-752h-150zM88 795l88 140h135l-140 -140h-83z" />
    <glyph glyph-name="Icircumflex" unicode="&#xce;" horiz-adv-x="332" 
d="M91 0v752h150v-752h-150zM236 789l-70 90l-70 -90h-92l107 146h110l107 -146h-92z" />
    <glyph glyph-name="Idieresis" unicode="&#xcf;" horiz-adv-x="332" 
d="M91 0v752h150v-752h-150zM59 945c41 0 75 -34 75 -75s-34 -75 -75 -75s-75 34 -75 75s34 75 75 75zM273 945c41 0 75 -34 75 -75s-34 -75 -75 -75s-75 34 -75 75s34 75 75 75z" />
    <glyph glyph-name="Igrave" unicode="&#xcc;" horiz-adv-x="332" 
d="M91 0v752h150v-752h-150zM161 795l-140 140h135l88 -140h-83z" />
    <glyph glyph-name="Ntilde" unicode="&#xd1;" horiz-adv-x="778" 
d="M540 0l-311 513h-2v-513h-144v752h161l305 -505h2v505h144v-752h-155zM270 796h-57c7 54 37 117 109 117c26 0 52 -9 75 -18c24 -9 45 -19 63 -19c27 0 43 16 48 42h57c-7 -53 -37 -116 -108 -116c-26 0 -52 9 -75 18c-24 9 -45 19 -63 19c-28 0 -44 -16 -49 -43z" />
    <glyph glyph-name="Oacute" unicode="&#xd3;" horiz-adv-x="832" 
d="M626 376c0 135 -70 256 -210 256s-210 -121 -210 -256s70 -256 210 -256s210 121 210 256zM50 376c0 202 132 390 366 390s366 -188 366 -390s-132 -390 -366 -390s-366 188 -366 390zM328 795l88 140h135l-140 -140h-83z" />
    <glyph glyph-name="Ocircumflex" unicode="&#xd4;" horiz-adv-x="832" 
d="M626 376c0 135 -70 256 -210 256s-210 -121 -210 -256s70 -256 210 -256s210 121 210 256zM50 376c0 202 132 390 366 390s366 -188 366 -390s-132 -390 -366 -390s-366 188 -366 390zM486 789l-70 90l-70 -90h-92l107 146h110l107 -146h-92z" />
    <glyph glyph-name="Odieresis" unicode="&#xd6;" horiz-adv-x="832" 
d="M626 376c0 135 -70 256 -210 256s-210 -121 -210 -256s70 -256 210 -256s210 121 210 256zM50 376c0 202 132 390 366 390s366 -188 366 -390s-132 -390 -366 -390s-366 188 -366 390zM309 945c41 0 75 -34 75 -75s-34 -75 -75 -75s-75 34 -75 75s34 75 75 75zM523 945
c41 0 75 -34 75 -75s-34 -75 -75 -75s-75 34 -75 75s34 75 75 75z" />
    <glyph glyph-name="Ograve" unicode="&#xd2;" horiz-adv-x="832" 
d="M626 376c0 135 -70 256 -210 256s-210 -121 -210 -256s70 -256 210 -256s210 121 210 256zM50 376c0 202 132 390 366 390s366 -188 366 -390s-132 -390 -366 -390s-366 188 -366 390zM421 795l-140 140h135l88 -140h-83z" />
    <glyph glyph-name="Otilde" unicode="&#xd5;" horiz-adv-x="832" 
d="M626 376c0 135 -70 256 -210 256s-210 -121 -210 -256s70 -256 210 -256s210 121 210 256zM50 376c0 202 132 390 366 390s366 -188 366 -390s-132 -390 -366 -390s-366 188 -366 390zM297 796h-57c7 54 37 117 109 117c26 0 52 -9 75 -18c24 -9 45 -19 63 -19
c27 0 43 16 48 42h57c-7 -53 -37 -116 -108 -116c-26 0 -52 9 -75 18c-24 9 -45 19 -63 19c-28 0 -44 -16 -49 -43z" />
    <glyph glyph-name="Scaron" unicode="&#x160;" horiz-adv-x="667" 
d="M597 557l-150 -3c0 52 -50 84 -110 84c-75 0 -120 -33 -120 -83c0 -52 50 -77 87 -89l138 -44c100 -32 171 -90 171 -206c0 -92 -66 -230 -274 -230c-261 0 -285 169 -285 236l150 3c0 -80 63 -111 136 -111c51 0 123 25 123 83c0 40 -17 61 -91 88l-164 59
c-83 30 -141 103 -141 188c0 96 66 234 261 234c232 0 269 -154 269 -209zM334 845l70 90h92l-107 -146h-110l-107 146h92z" />
    <glyph glyph-name="Uacute" unicode="&#xda;" horiz-adv-x="778" 
d="M552 311v441h150v-440c0 -235 -149 -326 -313 -326s-313 91 -313 326v440h150v-441c0 -125 56 -191 163 -191s163 66 163 191zM316 795l88 140h135l-140 -140h-83z" />
    <glyph glyph-name="Ucircumflex" unicode="&#xdb;" horiz-adv-x="778" 
d="M552 311v441h150v-440c0 -235 -149 -326 -313 -326s-313 91 -313 326v440h150v-441c0 -125 56 -191 163 -191s163 66 163 191zM459 789l-70 90l-70 -90h-92l107 146h110l107 -146h-92z" />
    <glyph glyph-name="Udieresis" unicode="&#xdc;" horiz-adv-x="778" 
d="M552 311v441h150v-440c0 -235 -149 -326 -313 -326s-313 91 -313 326v440h150v-441c0 -125 56 -191 163 -191s163 66 163 191zM282 945c41 0 75 -34 75 -75s-34 -75 -75 -75s-75 34 -75 75s34 75 75 75zM496 945c41 0 75 -34 75 -75s-34 -75 -75 -75s-75 34 -75 75
s34 75 75 75z" />
    <glyph glyph-name="Ugrave" unicode="&#xd9;" horiz-adv-x="778" 
d="M552 311v441h150v-440c0 -235 -149 -326 -313 -326s-313 91 -313 326v440h150v-441c0 -125 56 -191 163 -191s163 66 163 191zM379 795l-140 140h135l88 -140h-83z" />
    <glyph glyph-name="Yacute" unicode="&#xdd;" horiz-adv-x="611" 
d="M308 463l128 289h165l-219 -451v-301h-150v301l-222 451h175zM233 795l88 140h135l-140 -140h-83z" />
    <glyph glyph-name="Ydieresis" unicode="&#x178;" horiz-adv-x="611" 
d="M308 463l128 289h165l-219 -451v-301h-150v301l-222 451h175zM199 945c41 0 75 -34 75 -75s-34 -75 -75 -75s-75 34 -75 75s34 75 75 75zM413 945c41 0 75 -34 75 -75s-34 -75 -75 -75s-75 34 -75 75s34 75 75 75z" />
    <glyph glyph-name="Zcaron" unicode="&#x17d;" horiz-adv-x="611" 
d="M36 0v118l349 500h-325v134h515v-118l-350 -500h350v-134h-539zM306 845l70 90h92l-107 -146h-110l-107 146h92z" />
    <glyph glyph-name="aacute" unicode="&#xe1;" horiz-adv-x="611" 
d="M400 177v47l-120 -11c-66 -6 -88 -26 -88 -63c0 -46 42 -60 90 -60c45 0 118 25 118 87zM406 0v67h-2c-48 -63 -116 -81 -176 -81c-81 0 -180 40 -180 157c0 55 18 146 219 158l133 8v24c0 61 -38 91 -101 91c-59 0 -94 -30 -97 -76h-138c5 79 61 180 241 180
c127 0 233 -48 233 -166v-298c0 -27 3 -45 7 -64h-139zM233 602l88 140h135l-140 -140h-83z" />
    <glyph glyph-name="acircumflex" unicode="&#xe2;" horiz-adv-x="611" 
d="M400 177v47l-120 -11c-66 -6 -88 -26 -88 -63c0 -46 42 -60 90 -60c45 0 118 25 118 87zM406 0v67h-2c-48 -63 -116 -81 -176 -81c-81 0 -180 40 -180 157c0 55 18 146 219 158l133 8v24c0 61 -38 91 -101 91c-59 0 -94 -30 -97 -76h-138c5 79 61 180 241 180
c127 0 233 -48 233 -166v-298c0 -27 3 -45 7 -64h-139zM376 596l-70 90l-70 -90h-92l107 146h110l107 -146h-92z" />
    <glyph glyph-name="adieresis" unicode="&#xe4;" horiz-adv-x="611" 
d="M400 177v47l-120 -11c-66 -6 -88 -26 -88 -63c0 -46 42 -60 90 -60c45 0 118 25 118 87zM406 0v67h-2c-48 -63 -116 -81 -176 -81c-81 0 -180 40 -180 157c0 55 18 146 219 158l133 8v24c0 61 -38 91 -101 91c-59 0 -94 -30 -97 -76h-138c5 79 61 180 241 180
c127 0 233 -48 233 -166v-298c0 -27 3 -45 7 -64h-139zM199 752c41 0 75 -34 75 -75s-34 -75 -75 -75s-75 34 -75 75s34 75 75 75zM413 752c41 0 75 -34 75 -75s-34 -75 -75 -75s-75 34 -75 75s34 75 75 75z" />
    <glyph glyph-name="agrave" unicode="&#xe0;" horiz-adv-x="611" 
d="M400 177v47l-120 -11c-66 -6 -88 -26 -88 -63c0 -46 42 -60 90 -60c45 0 118 25 118 87zM406 0v67h-2c-48 -63 -116 -81 -176 -81c-81 0 -180 40 -180 157c0 55 18 146 219 158l133 8v24c0 61 -38 91 -101 91c-59 0 -94 -30 -97 -76h-138c5 79 61 180 241 180
c127 0 233 -48 233 -166v-298c0 -27 3 -45 7 -64h-139zM301 602l-140 140h135l88 -140h-83z" />
    <glyph glyph-name="aring" unicode="&#xe5;" horiz-adv-x="611" 
d="M400 177v47l-120 -11c-66 -6 -88 -26 -88 -63c0 -46 42 -60 90 -60c45 0 118 25 118 87zM406 0v67h-2c-48 -63 -116 -81 -176 -81c-81 0 -180 40 -180 157c0 55 18 146 219 158l133 8v24c0 61 -38 91 -101 91c-59 0 -94 -30 -97 -76h-138c5 79 61 180 241 180
c127 0 233 -48 233 -166v-298c0 -27 3 -45 7 -64h-139zM203 685c0 55 46 103 103 103c55 0 103 -47 103 -103c0 -55 -48 -103 -103 -103c-57 0 -103 49 -103 103zM257 685c0 -27 22 -49 49 -49s49 22 49 49s-22 49 -49 49s-49 -22 -49 -49z" />
    <glyph glyph-name="atilde" unicode="&#xe3;" horiz-adv-x="611" 
d="M400 177v47l-120 -11c-66 -6 -88 -26 -88 -63c0 -46 42 -60 90 -60c45 0 118 25 118 87zM406 0v67h-2c-48 -63 -116 -81 -176 -81c-81 0 -180 40 -180 157c0 55 18 146 219 158l133 8v24c0 61 -38 91 -101 91c-59 0 -94 -30 -97 -76h-138c5 79 61 180 241 180
c127 0 233 -48 233 -166v-298c0 -27 3 -45 7 -64h-139zM187 603h-57c7 54 37 117 109 117c26 0 52 -9 75 -18c24 -9 45 -19 63 -19c27 0 43 16 48 42h57c-7 -53 -37 -116 -108 -116c-26 0 -52 9 -75 18c-24 9 -45 19 -63 19c-28 0 -44 -16 -49 -43z" />
    <glyph glyph-name="ccedilla" unicode="&#xe7;" 
d="M525 323l-150 -6c-3 72 -45 89 -83 89c-89 0 -100 -94 -100 -160c0 -68 24 -144 99 -144c55 0 83 34 91 84l141 -5c-21 -107 -83 -186 -206 -194l-24 -33l2 -2c8 1 16 2 27 2c45 0 79 -34 79 -87c0 -61 -49 -101 -122 -101c-56 0 -101 16 -119 26l19 53
c28 -12 49 -18 71 -18c21 0 55 4 55 38c0 17 -12 37 -46 37c-19 0 -31 -3 -40 -9l-22 19l54 77c-139 18 -209 120 -209 263c0 165 94 276 250 276c153 0 226 -96 233 -205z" />
    <glyph glyph-name="eacute" unicode="&#xe9;" horiz-adv-x="610" 
d="M568 216h-376c6 -60 43 -120 120 -120c44 0 83 21 103 61l140 -11c-35 -105 -129 -160 -250 -160c-155 0 -263 106 -263 270c0 166 108 272 263 272s263 -106 263 -272v-40zM192 308h232c-5 50 -43 110 -112 110c-75 0 -112 -52 -120 -110zM252 602l88 140h135l-140 -140
h-83z" />
    <glyph glyph-name="ecircumflex" unicode="&#xea;" horiz-adv-x="610" 
d="M568 216h-376c6 -60 43 -120 120 -120c44 0 83 21 103 61l140 -11c-35 -105 -129 -160 -250 -160c-155 0 -263 106 -263 270c0 166 108 272 263 272s263 -106 263 -272v-40zM192 308h232c-5 50 -43 110 -112 110c-75 0 -112 -52 -120 -110zM375 596l-70 90l-70 -90h-92
l107 146h110l107 -146h-92z" />
    <glyph glyph-name="edieresis" unicode="&#xeb;" horiz-adv-x="610" 
d="M568 216h-376c6 -60 43 -120 120 -120c44 0 83 21 103 61l140 -11c-35 -105 -129 -160 -250 -160c-155 0 -263 106 -263 270c0 166 108 272 263 272s263 -106 263 -272v-40zM192 308h232c-5 50 -43 110 -112 110c-75 0 -112 -52 -120 -110zM198 752c41 0 75 -34 75 -75
s-34 -75 -75 -75s-75 34 -75 75s34 75 75 75zM412 752c41 0 75 -34 75 -75s-34 -75 -75 -75s-75 34 -75 75s34 75 75 75z" />
    <glyph glyph-name="egrave" unicode="&#xe8;" horiz-adv-x="610" 
d="M568 216h-376c6 -60 43 -120 120 -120c44 0 83 21 103 61l140 -11c-35 -105 -129 -160 -250 -160c-155 0 -263 106 -263 270c0 166 108 272 263 272s263 -106 263 -272v-40zM192 308h232c-5 50 -43 110 -112 110c-75 0 -112 -52 -120 -110zM320 602l-140 140h135l88 -140
h-83z" />
    <glyph glyph-name="iacute" unicode="&#xed;" horiz-adv-x="278" 
d="M67 0v514h144v-514h-144zM61 602l88 140h135l-140 -140h-83z" />
    <glyph glyph-name="icircumflex" unicode="&#xee;" horiz-adv-x="278" 
d="M67 0v514h144v-514h-144zM209 596l-70 90l-70 -90h-92l107 146h110l107 -146h-92z" />
    <glyph glyph-name="idieresis" unicode="&#xef;" horiz-adv-x="278" 
d="M67 0v514h144v-514h-144zM32 752c41 0 75 -34 75 -75s-34 -75 -75 -75s-75 34 -75 75s34 75 75 75zM246 752c41 0 75 -34 75 -75s-34 -75 -75 -75s-75 34 -75 75s34 75 75 75z" />
    <glyph glyph-name="igrave" unicode="&#xec;" horiz-adv-x="278" 
d="M67 0v514h144v-514h-144zM134 602l-140 140h135l88 -140h-83z" />
    <glyph glyph-name="ntilde" unicode="&#xf1;" horiz-adv-x="610" 
d="M397 0v313c0 74 -45 99 -90 99c-58 0 -94 -50 -94 -120v-292h-144v514h138v-67h2c43 62 94 81 152 81c124 0 180 -80 180 -179v-349h-144zM186 603h-57c7 54 37 117 109 117c26 0 52 -9 75 -18c24 -9 45 -19 63 -19c27 0 43 16 48 42h57c-7 -53 -37 -116 -108 -116
c-26 0 -52 9 -75 18c-24 9 -45 19 -63 19c-28 0 -44 -16 -49 -43z" />
    <glyph glyph-name="oacute" unicode="&#xf3;" horiz-adv-x="610" 
d="M568 257c0 -165 -108 -271 -263 -271s-263 106 -263 271s108 271 263 271s263 -106 263 -271zM418 257c0 89 -37 155 -113 155s-113 -66 -113 -155s37 -155 113 -155s113 66 113 155zM217 602l88 140h135l-140 -140h-83z" />
    <glyph glyph-name="ocircumflex" unicode="&#xf4;" horiz-adv-x="610" 
d="M568 257c0 -165 -108 -271 -263 -271s-263 106 -263 271s108 271 263 271s263 -106 263 -271zM418 257c0 89 -37 155 -113 155s-113 -66 -113 -155s37 -155 113 -155s113 66 113 155zM375 596l-70 90l-70 -90h-92l107 146h110l107 -146h-92z" />
    <glyph glyph-name="odieresis" unicode="&#xf6;" horiz-adv-x="610" 
d="M568 257c0 -165 -108 -271 -263 -271s-263 106 -263 271s108 271 263 271s263 -106 263 -271zM418 257c0 89 -37 155 -113 155s-113 -66 -113 -155s37 -155 113 -155s113 66 113 155zM198 752c41 0 75 -34 75 -75s-34 -75 -75 -75s-75 34 -75 75s34 75 75 75zM412 752
c41 0 75 -34 75 -75s-34 -75 -75 -75s-75 34 -75 75s34 75 75 75z" />
    <glyph glyph-name="ograve" unicode="&#xf2;" horiz-adv-x="610" 
d="M568 257c0 -165 -108 -271 -263 -271s-263 106 -263 271s108 271 263 271s263 -106 263 -271zM418 257c0 89 -37 155 -113 155s-113 -66 -113 -155s37 -155 113 -155s113 66 113 155zM310 602l-140 140h135l88 -140h-83z" />
    <glyph glyph-name="otilde" unicode="&#xf5;" horiz-adv-x="610" 
d="M568 257c0 -165 -108 -271 -263 -271s-263 106 -263 271s108 271 263 271s263 -106 263 -271zM418 257c0 89 -37 155 -113 155s-113 -66 -113 -155s37 -155 113 -155s113 66 113 155zM186 603h-57c7 54 37 117 109 117c26 0 52 -9 75 -18c24 -9 45 -19 63 -19
c27 0 43 16 48 42h57c-7 -53 -37 -116 -108 -116c-26 0 -52 9 -75 18c-24 9 -45 19 -63 19c-28 0 -44 -16 -49 -43z" />
    <glyph glyph-name="scaron" unicode="&#x161;" 
d="M497 358l-144 -3c-2 43 -33 69 -88 69c-38 0 -76 -15 -76 -46c0 -92 320 -12 320 -220c0 -40 -22 -172 -234 -172c-72 0 -216 22 -228 174h144c2 -50 46 -70 89 -70c37 0 85 11 85 53c0 86 -308 8 -308 220c0 79 61 165 213 165c132 0 219 -58 227 -170zM278 652l70 90
h92l-107 -146h-110l-107 146h92z" />
    <glyph glyph-name="uacute" unicode="&#xfa;" horiz-adv-x="610" 
d="M403 0v67h-2c-43 -62 -94 -81 -152 -81c-124 0 -180 80 -180 179v349h144v-313c0 -74 45 -99 90 -99c58 0 94 50 94 120v292h144v-514h-138zM232 602l88 140h135l-140 -140h-83z" />
    <glyph glyph-name="ucircumflex" unicode="&#xfb;" horiz-adv-x="610" 
d="M403 0v67h-2c-43 -62 -94 -81 -152 -81c-124 0 -180 80 -180 179v349h144v-313c0 -74 45 -99 90 -99c58 0 94 50 94 120v292h144v-514h-138zM375 596l-70 90l-70 -90h-92l107 146h110l107 -146h-92z" />
    <glyph glyph-name="udieresis" unicode="&#xfc;" horiz-adv-x="610" 
d="M403 0v67h-2c-43 -62 -94 -81 -152 -81c-124 0 -180 80 -180 179v349h144v-313c0 -74 45 -99 90 -99c58 0 94 50 94 120v292h144v-514h-138zM198 752c41 0 75 -34 75 -75s-34 -75 -75 -75s-75 34 -75 75s34 75 75 75zM412 752c41 0 75 -34 75 -75s-34 -75 -75 -75
s-75 34 -75 75s34 75 75 75z" />
    <glyph glyph-name="ugrave" unicode="&#xf9;" horiz-adv-x="610" 
d="M403 0v67h-2c-43 -62 -94 -81 -152 -81c-124 0 -180 80 -180 179v349h144v-313c0 -74 45 -99 90 -99c58 0 94 50 94 120v292h144v-514h-138zM295 602l-140 140h135l88 -140h-83z" />
    <glyph glyph-name="yacute" unicode="&#xfd;" 
d="M117 -224l86 224l-193 514h158l109 -340h2l109 340h158l-278 -738h-151zM205 602l88 140h135l-140 -140h-83z" />
    <glyph glyph-name="ydieresis" unicode="&#xff;" 
d="M117 -224l86 224l-193 514h158l109 -340h2l109 340h158l-278 -738h-151zM171 752c41 0 75 -34 75 -75s-34 -75 -75 -75s-75 34 -75 75s34 75 75 75zM385 752c41 0 75 -34 75 -75s-34 -75 -75 -75s-75 34 -75 75s34 75 75 75z" />
    <glyph glyph-name="zcaron" unicode="&#x17e;" horiz-adv-x="500" 
d="M33 0v104l251 294h-237v116h420v-104l-248 -294h248v-116h-434zM250 652l70 90h92l-107 -146h-110l-107 146h92z" />
    <glyph glyph-name="Delta" unicode="&#x2206;" horiz-adv-x="657" 
d="M27 0v79l226 673h158l218 -671v-81h-602zM163 109h325l-104 298c-15 58 -45 145 -56 191h-3c-8 -38 -36 -115 -51 -175z" />
    <glyph glyph-name="Omega" unicode="&#x2126;" horiz-adv-x="700" 
d="M169 110v3c-60 62 -119 164 -119 296c0 184 121 339 302 339c195 0 295 -179 295 -331c0 -134 -60 -243 -121 -304v-3h135v-110h-263v81c58 40 114 137 114 306c0 130 -55 246 -161 246c-102 0 -166 -106 -166 -251c0 -154 55 -262 114 -301v-81h-264v110h134z" />
    <glyph glyph-name="uni03BC" unicode="&#x3bc;" horiz-adv-x="610" 
d="M403 0v67h-2c-43 -62 -79 -81 -119 -81c-30 0 -55 11 -67 32h-2v-242h-144v738h144v-313c0 -74 45 -99 90 -99c58 0 94 50 94 120v292h144v-514h-138z" />
    <glyph glyph-name="pi" unicode="&#x3c0;" horiz-adv-x="606" 
d="M582 438h-69v-285c0 -75 5 -120 13 -153h-129c-12 23 -18 76 -18 148v290h-133c-4 -110 -28 -323 -64 -438h-129c35 127 61 325 62 438c-47 0 -74 -4 -96 -10l-14 91c25 20 80 35 166 35h421z" />
    <glyph glyph-name="Euro" unicode="&#x20ac;" 
d="M544 545l-146 -9c0 46 -28 88 -78 88c-55 0 -81 -50 -91 -128h226l-31 -86h-205c-1 -13 -1 -27 -1 -41v-28h181l-30 -86h-141c6 -78 38 -139 85 -139s71 27 80 67l145 -9c-22 -112 -87 -186 -226 -186c-132 0 -211 99 -235 267h-81l30 86h43c-1 9 -1 19 -1 29
c0 14 0 27 1 40h-73l30 86h54c28 158 109 256 236 256c152 0 209 -83 228 -207z" />
    <glyph glyph-name="afii61289" unicode="&#x2113;" horiz-adv-x="515" 
d="M446 192l52 -55c-52 -108 -129 -145 -208 -145c-125 0 -174 81 -183 173c0 4 0 8 -1 12c-16 -13 -34 -29 -51 -42l-33 71c31 27 58 48 83 73v267c0 183 84 265 183 265c97 0 140 -82 140 -187c0 -122 -75 -241 -194 -362v-49c1 -76 38 -114 87 -114c53 0 96 47 125 93z
M234 542v-155c66 81 113 171 113 243c0 53 -13 84 -53 84c-29 0 -60 -37 -60 -172z" />
    <glyph glyph-name="estimated" unicode="&#x212e;" horiz-adv-x="921" 
d="M884 359h-687c-3 0 -5 -1 -5 -4v-208c0 -9 3 -17 9 -24c66 -69 158 -113 260 -113c109 0 206 50 273 127h61c-76 -90 -199 -148 -336 -148c-233 0 -423 170 -423 381s190 382 423 382c236 0 425 -171 425 -382v-11zM728 386v210c0 9 -3 18 -10 24
c-66 66 -157 109 -257 109c-101 0 -193 -44 -259 -112c-7 -7 -10 -16 -10 -26v-205c0 -2 2 -6 5 -6h527c3 0 4 4 4 6z" />
    <glyph glyph-name="partialdiff" unicode="&#x2202;" horiz-adv-x="580" 
d="M105 671l-36 103c31 24 90 60 184 60c146 0 277 -131 277 -401c0 -268 -103 -440 -283 -440c-140 0 -208 134 -208 249c0 173 99 278 217 278c79 0 128 -52 143 -78h1v34c0 126 -64 245 -165 245c-60 0 -103 -27 -130 -50zM260 107h1c73 0 117 120 127 221
c-9 32 -46 82 -106 82c-67 0 -112 -83 -112 -174c0 -72 35 -129 90 -129z" />
    <glyph glyph-name="product" unicode="&#x220f;" horiz-adv-x="727" 
d="M700 613h-100v-715h-132v715h-210v-715h-132v715h-100v123h674v-123z" />
    <glyph glyph-name="summation" unicode="&#x2211;" horiz-adv-x="558" 
d="M540 -102h-516v88l240 333l-232 322v95h491v-114h-314v-3l204 -277l-228 -314v-3h355v-127z" />
    <glyph glyph-name="uni2219" unicode="&#x2219;" horiz-adv-x="278" 
d="M55 296c0 46 38 84 84 84s84 -38 84 -84s-38 -84 -84 -84s-84 38 -84 84z" />
    <glyph glyph-name="radical" unicode="&#x221a;" horiz-adv-x="600" 
d="M606 885l-224 -1030h-106l-147 459l-75 -30l-21 76l176 71l99 -324c7 -35 16 -71 20 -95l2 -1c3 23 8 63 16 103l169 771h91z" />
    <glyph glyph-name="infinity" unicode="&#x221e;" horiz-adv-x="798" 
d="M749 305v-2c0 -112 -81 -179 -166 -179c-59 0 -115 25 -183 116c-52 -66 -106 -116 -189 -116c-85 0 -162 71 -162 174c0 105 73 178 171 178c76 0 130 -45 183 -113c42 47 94 113 186 113c90 -1 160 -68 160 -171zM220 197h2c57 0 99 50 138 98c-42 57 -77 109 -143 109
c-59 0 -93 -45 -93 -107c0 -55 41 -100 96 -100zM581 404h-1c-61 0 -107 -65 -139 -102c61 -77 93 -105 145 -105c56 0 88 56 88 101c0 61 -37 106 -93 106z" />
    <glyph glyph-name="integral" unicode="&#x222b;" horiz-adv-x="410" 
d="M384 900l-14 -94c-9 5 -21 9 -35 9c-19 0 -37 -8 -50 -27c-21 -29 -27 -89 -27 -177c0 -172 15 -314 15 -505c0 -100 -14 -169 -36 -212c-28 -56 -83 -77 -135 -77c-33 0 -63 9 -78 17l17 97c9 -4 23 -10 42 -10c16 0 33 5 44 20c17 25 26 69 26 163
c0 194 -15 339 -15 520c0 123 17 190 61 239c30 33 77 48 122 48c26 0 51 -6 63 -11z" />
    <glyph glyph-name="approxequal" unicode="&#x2248;" horiz-adv-x="553" 
d="M466 474l47 -43c-31 -62 -79 -108 -137 -108c-40 0 -67 12 -112 41c-30 19 -54 35 -86 35c-45 0 -69 -38 -93 -74l-47 42c29 61 83 107 146 107c50 0 82 -23 107 -37c36 -22 57 -38 86 -38c39 0 63 31 89 75zM466 281l47 -43c-30 -61 -78 -108 -138 -108
c-39 0 -67 14 -111 41c-31 20 -54 36 -86 36c-45 0 -68 -38 -93 -75l-47 42c29 61 84 107 146 107c50 0 82 -23 106 -37c33 -18 56 -37 87 -37c39 0 62 30 89 74z" />
    <glyph glyph-name="notequal" unicode="&#x2260;" horiz-adv-x="553" 
d="M408 535l-39 -89h135v-78h-163l-59 -139h222v-77h-251l-49 -115l-61 24l40 91h-135v77h164l58 139h-222v78h251l48 113z" />
    <glyph glyph-name="lessequal" unicode="&#x2264;" horiz-adv-x="553" 
d="M501 104l-447 231v84l447 230v-91l-372 -180v-2l372 -180v-92zM505 -13h-455v79h455v-79z" />
    <glyph glyph-name="greaterequal" unicode="&#x2265;" horiz-adv-x="553" 
d="M56 649l447 -230v-84l-447 -231v92l372 180v2l-372 180v91zM504 -13h-453v79h453v-79z" />
    <glyph glyph-name="lozenge" unicode="&#x25ca;" horiz-adv-x="599" 
d="M548 368l-198 -419h-108l-191 419l198 419h107zM431 365l-110 244c-7 20 -15 47 -18 67h-4c-5 -21 -12 -45 -20 -67l-111 -238l111 -249c7 -22 14 -48 17 -63h5c3 16 12 50 17 61z" />
    <glyph glyph-name="uni00A0" unicode="&#xa0;" horiz-adv-x="278" 
 />
    <glyph glyph-name="uni00AD" unicode="&#xad;" horiz-adv-x="333" 
d="M20 195v134h293v-134h-293z" />
    <glyph glyph-name="uni02C9" unicode="&#x2c9;" horiz-adv-x="278" 
d="M-6 625v66h290v-66h-290z" />
    <glyph glyph-name="uni03A9" unicode="&#x3a9;" horiz-adv-x="700" 
d="M169 110v3c-60 62 -119 164 -119 296c0 184 121 339 302 339c195 0 295 -179 295 -331c0 -134 -60 -243 -121 -304v-3h135v-110h-263v81c58 40 114 137 114 306c0 130 -55 246 -161 246c-102 0 -166 -106 -166 -251c0 -154 55 -262 114 -301v-81h-264v110h134z" />
    <glyph glyph-name="uni2215" unicode="&#x2215;" horiz-adv-x="167" 
d="M-171 -12l427 764h82l-423 -764h-86z" />
    </font>
</defs>
</svg>
